<?xml version="1.0" encoding="UTF-8"?>
<svg id="b" data-name="Layer 2" xmlns="http://www.w3.org/2000/svg" width="553.238" height="553.135" viewBox="0 0 553.238 553.135">
  <g id="c" data-name="Art">
    <g id="d" data-name="Circular Logo - Tigerlily - Light">
      <g>
        <g>
          <path d="M364.817,335.581c-9.624-2.14-22.453-2.537-34.223.427-26.146,6.597-33.941,26.119-33.941,26.119.36,3.218,2.688,1.943,7.579.875,4.897-1.068,18.919,5.307,18.919,5.307,0,0,20.416,5.533,35.932-8.923,15.511-14.458,24.876-16.313,24.876-16.313,0,0-7.382-4.872-19.141-7.493ZM335.059,364.924c-6.898,0-12.499-5.586-12.499-12.494,0-4.93,2.852-9.172,6.985-11.209,2.724-.403,5.207-.791,7.526-1.118,5.951.962,10.499,6.097,10.499,12.327,0,6.909-5.6,12.494-12.511,12.494ZM312.949,361.299c-6.796-2.556-12.597-.029-12.597-.029,0,0,5.801-13.041,24.934-19.106-2.705,2.586-4.397,6.225-4.397,10.267,0,6.016,3.744,11.142,9.026,13.203-6.537-.336-11.848-2.415-16.966-4.334ZM351.159,359.592c-2.552,1.649-4.851,2.846-7.011,3.735,3.124-2.601,5.109-6.515,5.109-10.898,0-5.682-3.336-10.571-8.161-12.84,2.491-.274,4.832-.429,7.146-.39,16.039.278,24.34,4.734,24.34,4.734-1.654.109-6.467,3.228-11.699,7.214-2.418,1.838-6.863,6.616-9.725,8.445Z" fill="#db4e3b" stroke-width="0"/>
          <path d="M341.056,352.421c0,3.295-2.682,5.977-5.977,5.977s-5.979-2.682-5.979-5.977,2.678-5.977,5.979-5.977,5.977,2.676,5.977,5.977" fill="#db4e3b" stroke-width="0"/>
          <path d="M201.861,334.735c-11.766-2.971-24.599-2.573-34.225-.427-11.757,2.621-19.141,7.493-19.141,7.493,0,0,9.367,1.853,24.882,16.311,15.513,14.458,35.93,8.925,35.93,8.925,0,0,14.025-6.377,18.917-5.309,4.893,1.064,7.227,2.343,7.585-.877,0,0-7.801-19.518-33.947-26.115ZM197.396,363.648c-6.915,0-12.515-5.59-12.515-12.492,0-6.231,4.55-11.367,10.506-12.327,2.317.327,4.798.714,7.518,1.117,4.134,2.036,6.988,6.279,6.988,11.21,0,6.902-5.6,12.492-12.496,12.492ZM171.571,349.867c-5.232-3.986-10.043-7.103-11.699-7.214,0,0,8.299-4.449,24.342-4.734,2.313-.036,4.655.12,7.146.395-4.825,2.268-8.161,7.158-8.161,12.842,0,4.383,1.986,8.298,5.111,10.897-2.161-.89-4.46-2.087-7.014-3.736-2.86-1.83-7.302-6.605-9.725-8.45ZM219.501,360.023c-5.118,1.918-10.431,4-16.973,4.336,5.288-2.057,9.038-7.184,9.038-13.203,0-4.043-1.693-7.682-4.398-10.268,19.133,6.064,24.932,19.106,24.932,19.106,0,0-5.799-2.523-12.599.029Z" fill="#db4e3b" stroke-width="0"/>
          <path d="M191.398,351.147c0,3.295,2.682,5.977,5.979,5.977s5.977-2.682,5.977-5.977-2.68-5.979-5.977-5.979-5.979,2.678-5.979,5.979" fill="#db4e3b" stroke-width="0"/>
          <g>
            <path d="M357.258,290.576s20.111-16.058,7.036-54.313c-11.797-32.201-34.117-39.541-41.766-58.988-7.509-19.077-13.835-41.048-53.877-39.198,5.444,3.098,11.627,5.821,15.302,5.821,6.272,0,10.549,1.14,13.618,4.529,3.09,3.412,3.149,9.479,3.924,13.342.685,3.415,1.962,6.279,1.962,6.279,0,0,2.354,5.494,4.522,10.836,4.188,10.319-1.789,14.336-1.789,14.336,4.011-5.617-1.455-18.55-4.085-22.174-2.63-3.62-3.294-5.593-5.105-13.494-1.809-7.899-7.629-9.406-7.629-9.406-1.742-.475-8.37-.83-9.655-1.287-23.152-8.241-21.185-13.404-31.883-13.734-5.501-.171-10.106,1.024-13.293,2.226-1.255.687-2.3,1.384-3.155,2.06-.015.022-.031.042-.046.064l-.037.004c-1.319,1.054-2.205,2.049-2.781,2.85-1.001,1.393-2.301,2.535-3.727,3.488-6.624,4.425-22.504,18.032-14.181,42.71,0,0,5.102,23.276,44.639,42.085,4.414,2.1,8.513,4.047,12.342,5.887-3.804,5.748-9.302,16.105-10.804,29.665-.733,6.581-.126,12.803,1.192,18.489-3.699-2.49-7.572-5.424-11.617-8.864-40.575-34.496-64.13-29.867-72.42-29.236-8.288.643-46.985,11.487-42.423,46.458,4.909,37.639,46.467,31.461,58.921,32.517,11.023.935,36.033,1.783,65.446,18.593,12.752,5.738,26.18,3.693,37.623-1.275,2.617-1.136,42.089-25.188,71.105-14.667,29.01,10.524,35.071,32.521,25.188,53.566-9.888,21.044-54.577,31.838-91.082,16.031-43.66-18.904-62.866,3.224-67.966,12.153-5.102,8.929-1.858,17.095,3.026,17.095,0,0,3.188.216,4.466-4.038,1.277-4.254,2.761-13.191,19.979-16.801,17.215-3.607,33.158,5.112,41.446,7.872,8.293,2.759,28.066,9.785,53.783,6.381,25.713-3.41,65.886-23.387,70.988-71.853.429-50.375-60.188-56.325-67.186-56.005ZM359.446,283.209c-6.096,9.233-16.621,7.757-16.621,7.757-8.494-1.941-4.71-12.557.368-12.651,5.079-.096,16.627-4.528,19.21-8.586.852-1.346,3.138,4.246-2.958,13.48ZM362.955,264.368c-4.71,8.59-20.408,9.974-20.408,9.974-4.432-.09-8.298-9.854-.815-13.744,10.625-.93,19.837-7.866,20.853-8.785,1.017-.925,5.079,3.967.371,12.555ZM356.176,233.609c1.71-2.447,5.853,1.753,6.964,6.631,1.105,4.867-1.015,9.662-8.59,13.357-7.572,3.691-12.651,2.671-12.651,2.671,0,0-6.371-.082-8.584-2.987-2.625-3.44-3.052-6.913,4.708-8.72,7.757-1.811,16.437-8.506,18.152-10.952ZM353.608,224.135c.959,2.778,1.786,8.192-7.713,13.321-6.247,3.373-11.267,4.765-15.522,5.14-9.415.978-16.57-8.416-9.247-9.015,7.327-.609,18.838-8.667,22.508-13.399,3.668-4.744,9.017,1.17,9.974,3.953ZM341.315,217.553c-1.706,2.567-4.373,4.886-7.018,6.739-5.529,3.875-12.589,5.648-16.901,6.649-2.569.595-6.783.685-9.45-1.216-3.957-2.822-5.422-8.318-.408-9.199,0,0,14.368-1.638,26.942-14.424,1.653-1.681,12.099,3.509,6.836,11.452ZM294.802,264.161c-.768-6.921-2.579-13.004-4.672-18.071,14.19,8.317,20.279,15.537,20.279,27.48,0,10.658-7.291,20.21-20.763,20.618,3.569-8.307,6.421-18.6,5.156-30.027ZM316.234,192.417c1.653-1.681,18.597,5.88,13.334,13.823-1.706,2.567-6.842,5.322-11.024,7.222-6.147,2.794-12.157,4.948-18.246,4.942-2.637-.003-7.93-.462-10.597-2.363-3.957-2.822-5.422-8.318-.408-9.199,0,0,14.368-1.639,26.942-14.425ZM268.703,193.662c2.598-2.38,8.584-2.659,8.584-2.659,0,0,3.034,1.141,4.867,2.018,4.124,1.968,10.524,7.558,12.097,8.205-1.96.394-11.372,2.889-18.396,2.045-3.967-.479-6.865-3.117-7.972-5.11-1.177-1.907-.316-3.463.821-4.499ZM259.371,189.182c-6.999-1.934-6.027-8.167-6.027-8.167.624-2.841,10.803-1.595,10.803-1.595,3.601,7.549,7.895,8.728,7.895,8.728,0,0-5.678,2.979-12.67,1.034ZM277.717,171.269s4.012-.201,3.41,5.416c0,0-3.611-1.003-4.212-2.407-.602-1.404.802-3.009.802-3.009ZM270.267,172.408c2.281,8.268,10.834,9.883,10.834,9.883,6.842,1.711,8.268,6.652,12.544,10.929,4.276,4.276,10.644,1.996,10.644,1.996,0,0-4.657,2.851-9.218,1.14-4.562-1.711-7.983-7.983-12.544-9.693-4.562-1.711-11.823-4.811-12.829-8.838-2.851-11.404-11.404-22.808-11.404-22.808,3.136,1.996,9.693,9.123,11.974,17.391ZM261.239,170.837c.689,2.556,1.246,3.879,1.246,3.879,0,0-9.695,1.867-12.12-2.567-2.424-4.432-.624-6.302-.067-6.928,2.491-2.075,6.783-.967,7.616-.829,0,0,2.63,3.881,3.325,6.444ZM255.49,160.307s-11.125-.714-9.995-8.843c0,0,7.499,4.273,9.995,8.843ZM253.772,224.868c-41.032-21.476-45.918-50.589-35.498-68.231,4.832-8.186,10.595-12.454,16.071-12.454,9.143,0,13.685,3.991,13.685,3.991,0,0-5.573-1.535-10.828-1.679-7.713-.216-18.157,6.423-19.962,22.491-2.851,25.374,14.719,39.949,27.654,48.181,9.408,5.987,21.783,13.279,34.782,19.386l-7.983-3.136c-5.673-2.677-10.858-4.853-17.921-8.551ZM264.951,258.146c2.079-8.471,5.462-14.031,7.717-17.031,1.382-1.834,3.138-3.894,3.138-3.894,0,0,1.635,1.968,2.908,3.637,2.263,2.935,5.772,8.588,7.918,17.289.534,2.169.995,4.35,1.342,6.583-2.55-4.045-7.045-6.735-12.18-6.735s-9.635,2.688-12.188,6.73c.347-2.231.81-4.41,1.345-6.578ZM275.794,259.738c7.011,0,12.708,5.69,12.708,12.693s-5.697,12.714-12.708,12.714-12.72-5.692-12.72-12.714,5.69-12.693,12.72-12.693ZM288.167,279.747c-.934,6.964-3.389,14.911-8.26,24.627-1.003,2.001-4.101,7.445-4.101,7.445,0,0-3.157-5.491-4.172-7.514-4.845-9.678-7.29-17.604-8.223-24.555,2.514,4.22,7.11,7.057,12.383,7.057s9.862-2.839,12.374-7.06ZM405.105,377.619c-7.441,17.215-26.142,31.248-52.286,35.712-26.146,4.459-58.885-11.06-58.885-11.06,0,0-23.592-12.327-43.588-2.778-20,9.542-17.338,20.585-17.338,20.585l-.391.618c-4.468-10.84,12.856-27.135,31.775-28.41,18.922-1.279,22.746,6.794,52.787,13.179,30.04,6.385,51.848.72,71.115-16.895,15.754-14.403,9.591-38.798,8.802-44.241-.785-5.441,3.119-1.576,4.254-5.979,1.135-4.407-20.475-30.67-54.7-31.093-34.223-.431-45.907,10.198-51.648,15.733-5.738,5.527-3.615,12.752-3.615,12.752,0,0-11.268,4.463-19.772,4.463s-16.363-4.254-16.363-4.254c8.504-8.081,3.402-18.911-5.527-21.254-8.925-2.345-24.149-3.484-55.249-5.169-9.561-.523-32.414-3.193-42.807-16.24-5.347-6.5-9.883-18.626-4.267-27.158,17.485-26.558,55.559-14.569,63.211-11.376,7.652,3.189,14.257,6.089,35.317,23.137,9.345,7.565,14.044,13.694,15.975,16.59.221.517.445,1.026.672,1.528-15.144-9.934-51.248-21.697-65.565-21.697-14.46,0-24.235,5.523-24.235,5.523,20.406-.86,47.404,5.098,72.91,18.069,8.55,4.349,16.008,7.094,22.453,8.685.936,1.587,1.785,2.975,2.471,4.135,1.179,11.462-2.622,11.358-5.093,11.548-3.144.242-5.566-5.809-.24-6.404,0,0-2.823-1.405-4.797,1.367-1.972,2.755.667,7.986,5.892,7.888,5.037-.095,9.369-4.714,9.369-13h.105c0,8.286,3.97,13.262,9.723,13.19,5.24-.065,7.286-5.323,5.322-8.078-1.974-2.772-4.581-1.367-4.581-1.367,5.336.595,3.256,6.309.02,6.309-2.851,0-6.535.009-5.352-11.453.375-.699.814-1.477,1.296-2.322,5.462-.059,9.674-1.151,12.729-2.631,7.976-3.871,72.422-25.167,104.097,1.823,31.675,26.992,21.294,53.516,21.294,53.516,0,0-7.842-.71-15.287,16.508Z" fill="#db4e3b" stroke-width="0"/>
            <path d="M275.775,278.178c3.299,0,5.977-2.682,5.977-5.977s-2.678-5.977-5.977-5.977-5.975,2.682-5.975,5.977,2.678,5.977,5.975,5.977Z" fill="#db4e3b" stroke-width="0"/>
          </g>
        </g>
        <g>
          <path d="M479.321,113.019c-.899.311-1.773.423-2.624.336-.849-.086-1.668-.368-2.451-.845-.784-.477-1.509-1.112-2.178-1.907-.997-1.186-1.609-2.369-1.836-3.548-.227-1.179-.248-2.29-.064-3.334l4.111.134c-.112.834-.117,1.585-.013,2.252.104.666.379,1.266.83,1.801.534.637,1.154.968,1.855.995.702.027,1.494-.33,2.377-1.073l9.78-8.227,2.882,3.427-9.932,8.354c-.925.778-1.837,1.323-2.736,1.635Z" fill="#db4e3b" stroke-width="0"/>
          <path d="M485.642,127.582l16.261-11.363,2.501,3.577-16.261,11.364-2.501-3.578Z" fill="#db4e3b" stroke-width="0"/>
          <path d="M501.202,152.618l-1.884-3.362,13.504-16.767,2.356,4.202-9.65,11.356,14.722-2.309,2.301,4.104-21.35,2.775Z" fill="#db4e3b" stroke-width="0"/>
          <path d="M516.407,184.932l3.434-3.362-3.173-7.766-4.805.005-1.682-4.119,21.71.313,1.523,3.726-15.28,15.427-1.726-4.224ZM527.777,173.796l-6.952-.007,1.993,4.879,4.958-4.872Z" fill="#db4e3b" stroke-width="0"/>
          <path d="M526.185,216.458l12.521-3.314-9.621-3.229-.028-.109,6.695-7.488-12.439,3.291-1.102-4.165,19.177-5.075,1.204,4.548-6.776,7.187,9.444,2.895,1.203,4.548-19.178,5.075-1.102-4.164Z" fill="#db4e3b" stroke-width="0"/>
          <path d="M536.83,250.646c-1.159-.258-2.157-.712-2.995-1.364s-1.51-1.487-2.016-2.506-.845-2.186-1.018-3.497c-.349-2.641.109-4.816,1.371-6.526,1.26-1.71,3.343-2.756,6.246-3.138l11.238-1.481.57,4.327-11.126,1.466c-1.612.212-2.774.746-3.491,1.603-.715.857-.986,1.95-.811,3.28.174,1.33.705,2.318,1.591,2.963.886.646,2.115.864,3.688.657l11.267-1.484.57,4.327-11.099,1.462c-1.499.197-2.827.167-3.985-.089Z" fill="#db4e3b" stroke-width="0"/>
          <path d="M533.352,278.998l8.382-6.236-2.406-2.271-6.063.063-.045-4.364,19.837-.204.045,4.364-8.672.089,8.754,7.959.053,5.27-8.499-7.989-11.334,8.563-.053-5.243Z" fill="#db4e3b" stroke-width="0"/>
          <path d="M547.404,307.395l-15.725-1.66.458-4.34,15.725,1.66.634-6.003,4.002.422-1.726,16.346-4.002-.422.634-6.003Z" fill="#db4e3b" stroke-width="0"/>
          <path d="M528.703,325.106l19.445,3.928-.864,4.278-19.446-3.928.864-4.278Z" fill="#db4e3b" stroke-width="0"/>
          <path d="M522.628,373.924l-7.373-2.858,1.577-4.07,7.293,2.827,13.959-2.767-1.845,4.757-9.135,1.535,5.684,7.37-1.792,4.623-8.37-11.418Z" fill="#db4e3b" stroke-width="0"/>
          <path d="M503.247,409.556c-.839-1.051-1.449-2.21-1.832-3.476-.38-1.267-.501-2.598-.364-3.992.137-1.396.569-2.767,1.293-4.114.723-1.349,1.627-2.461,2.711-3.338,1.081-.877,2.248-1.51,3.498-1.9,1.25-.391,2.543-.522,3.879-.393,1.335.127,2.628.527,3.875,1.197l.051.027c1.248.671,2.292,1.531,3.131,2.583.84,1.052,1.451,2.211,1.833,3.478.38,1.266.502,2.596.364,3.991-.138,1.394-.569,2.767-1.293,4.114-.725,1.349-1.628,2.461-2.71,3.338-1.083.877-2.249,1.51-3.499,1.901-1.251.389-2.543.52-3.879.393-1.336-.129-2.628-.529-3.877-1.198l-.049-.027c-1.248-.67-2.292-1.531-3.132-2.584ZM508.539,408.121c.749.402,1.526.652,2.33.752.803.1,1.583.046,2.337-.16.754-.205,1.451-.555,2.092-1.047.64-.493,1.166-1.122,1.577-1.887.419-.783.66-1.57.721-2.363.063-.793-.034-1.552-.288-2.278-.252-.726-.639-1.394-1.158-2.006s-1.153-1.118-1.901-1.521l-.05-.026c-.748-.403-1.526-.654-2.329-.753-.805-.1-1.585-.046-2.338.159-.754.207-1.45.552-2.085,1.036-.636.484-1.164,1.117-1.584,1.899-.411.766-.65,1.549-.715,2.35s.028,1.564.282,2.29c.253.726.639,1.395,1.158,2.006.519.612,1.152,1.118,1.901,1.52l.05.028Z" fill="#db4e3b" stroke-width="0"/>
          <path d="M482.375,431.106c.319-1.502,1.007-2.991,2.062-4.467.901-1.259,1.93-2.259,3.089-3,1.156-.74,2.371-1.219,3.641-1.436,1.27-.219,2.561-.172,3.871.138,1.312.312,2.566.895,3.765,1.753l.046.033c1.152.825,2.08,1.807,2.784,2.951.704,1.142,1.167,2.362,1.389,3.659.222,1.297.184,2.617-.115,3.959-.299,1.344-.888,2.629-1.767,3.859-.517.722-1.038,1.343-1.561,1.863-.523.521-1.058.968-1.605,1.344-.548.376-1.119.686-1.713.934-.596.248-1.22.452-1.869.615l-1.097-4.166c.482-.12.931-.262,1.351-.427s.817-.362,1.192-.594c.374-.23.738-.511,1.089-.84s.692-.724,1.023-1.185c.461-.645.758-1.346.89-2.099s.121-1.504-.031-2.252c-.152-.748-.446-1.458-.884-2.132-.439-.673-1.004-1.258-1.697-1.754l-.045-.033c-.74-.529-1.506-.897-2.301-1.106-.794-.207-1.579-.258-2.353-.15-.776.106-1.501.365-2.179.775-.678.409-1.275.975-1.791,1.697-.946,1.321-1.418,2.668-1.416,4.04l2.32,1.661,2.557-3.572,3.065,2.193-5.013,7.007-7.008-5.014c-.112-1.335-.01-2.754.311-4.256Z" fill="#db4e3b" stroke-width="0"/>
          <path d="M460.807,455.479l4.495,1.693,5.703-6.153-2.031-4.354,3.024-3.264,8.876,19.816-2.735,2.953-20.434-7.344,3.102-3.347ZM475.7,461.087l-2.927-6.305-3.583,3.866,6.51,2.439Z" fill="#db4e3b" stroke-width="0"/>
          <path d="M438.582,484.346l2.487,3.307-6.977,5.246-2.486-3.308,6.976-5.245Z" fill="#db4e3b" stroke-width="0"/>
          <path d="M387.291,514.921c-.089-1.309.083-2.571.518-3.786.435-1.214,1.115-2.34,2.042-3.379.925-1.039,2.079-1.906,3.463-2.604l6.906-3.486,8.938,17.711-6.906,3.485c-1.383.698-2.766,1.115-4.146,1.252-1.381.136-2.689.018-3.925-.353-1.235-.372-2.35-.978-3.347-1.819-.996-.842-1.809-1.886-2.44-3.135l-.025-.05c-.629-1.248-.989-2.527-1.078-3.835ZM392.444,516.701c.391.775.883,1.427,1.477,1.953.593.526,1.241.908,1.943,1.146.703.238,1.448.321,2.238.252.79-.071,1.581-.306,2.374-.707l3.011-1.519-5.388-10.677-3.011,1.52c-.792.4-1.454.893-1.985,1.477s-.907,1.23-1.134,1.936c-.226.707-.307,1.446-.245,2.22.062.773.293,1.556.693,2.349l.026.05Z" fill="#db4e3b" stroke-width="0"/>
          <path d="M357.4,525.228c.006-1.187.239-2.258.697-3.217.46-.958,1.134-1.792,2.022-2.501.89-.711,1.957-1.289,3.201-1.737,2.507-.9,4.731-.915,6.669-.045,1.938.87,3.402,2.683,4.39,5.44l3.831,10.669-4.109,1.475-3.79-10.564c-.55-1.53-1.319-2.554-2.307-3.071-.988-.519-2.115-.552-3.377-.099-1.263.454-2.116,1.181-2.56,2.184-.443,1.002-.397,2.25.139,3.744l3.839,10.696-4.108,1.474-3.781-10.536c-.511-1.423-.763-2.727-.757-3.913ZM370.339,540.35h0c.357.994-.16,2.09-1.154,2.447l-.293.105c-.994.357-2.09-.16-2.447-1.154h0c-.357-.994.16-2.09,1.154-2.447l.293-.105c.994-.357,2.09.16,2.447,1.154ZM376.048,538.302h0c.357.994-.16,2.089-1.154,2.446l-.293.105c-.994.357-2.09-.16-2.447-1.154h0c-.357-.995.16-2.09,1.154-2.447l.293-.105c.995-.357,2.09.16,2.447,1.155Z" fill="#db4e3b" stroke-width="0"/>
          <path d="M328.68,531.275c.173-.827.511-1.565,1.015-2.216.503-.652,1.155-1.211,1.955-1.679s1.723-.825,2.772-1.07c1.472-.344,2.976-.428,4.51-.254,1.535.176,3.005.652,4.409,1.431l-1.809,3.594c-1.049-.512-2.089-.87-3.118-1.076-1.026-.207-2.093-.181-3.198.076-.883.206-1.531.528-1.943.963s-.552.939-.418,1.509l.013.055c.064.276.172.507.323.696.15.187.391.34.719.457.329.118.769.209,1.319.275.551.065,1.256.104,2.113.117,1.034.01,1.982.071,2.844.18.862.108,1.62.316,2.274.619s1.21.741,1.664,1.314.794,1.338,1.017,2.294l.013.055c.206.884.227,1.716.065,2.502-.164.785-.483,1.504-.957,2.159-.472.654-1.09,1.215-1.85,1.683s-1.637.819-2.631,1.051c-1.417.33-2.768.423-4.053.276-1.286-.145-2.517-.498-3.696-1.057l1.461-3.717c1.002.387,1.957.654,2.864.802.908.147,1.774.124,2.603-.07.828-.194,1.41-.5,1.75-.918.338-.418.452-.867.34-1.346l-.014-.055c-.073-.313-.196-.57-.368-.772-.175-.203-.44-.359-.797-.47-.357-.111-.826-.185-1.409-.224-.584-.039-1.316-.072-2.198-.099-1.038-.029-1.977-.115-2.818-.258-.84-.143-1.576-.379-2.207-.707-.63-.328-1.151-.765-1.561-1.309-.409-.545-.712-1.24-.91-2.086l-.014-.055c-.223-.957-.248-1.849-.075-2.675Z" fill="#db4e3b" stroke-width="0"/>
          <path d="M300.537,535.459c.263-.802.68-1.5,1.251-2.092s1.28-1.077,2.126-1.455c.845-.379,1.804-.632,2.871-.762,1.501-.181,3.004-.102,4.512.24,1.505.341,2.914.975,4.226,1.901l-2.19,3.376c-.988-.622-1.983-1.092-2.982-1.409-.999-.318-2.062-.408-3.188-.272-.9.109-1.579.358-2.037.745-.457.388-.651.873-.581,1.456l.008.055c.034.282.115.524.245.727.131.202.352.38.666.533.314.152.741.291,1.281.416s1.235.24,2.088.347c1.027.124,1.962.287,2.806.489.845.202,1.577.49,2.195.863.617.372,1.12.868,1.511,1.487.389.619.642,1.416.761,2.391l.007.057c.108.9.039,1.732-.209,2.495-.249.762-.644,1.442-1.185,2.042-.543.597-1.218,1.089-2.024,1.471-.807.383-1.716.636-2.73.758-1.444.175-2.797.119-4.059-.166-1.261-.286-2.447-.771-3.559-1.454l1.856-3.535c.955.494,1.874.862,2.762,1.107.886.245,1.751.317,2.594.214.844-.102,1.457-.342,1.838-.721.383-.379.545-.813.486-1.301l-.007-.056c-.039-.319-.133-.588-.284-.807s-.396-.404-.74-.554c-.342-.148-.802-.273-1.376-.376-.576-.102-1.3-.214-2.174-.336-1.028-.143-1.952-.331-2.773-.564-.82-.234-1.525-.548-2.117-.943-.591-.396-1.062-.886-1.409-1.471-.348-.586-.574-1.311-.678-2.173l-.007-.056c-.117-.975-.045-1.864.216-2.667Z" fill="#db4e3b" stroke-width="0"/>
          <path d="M285.884,533.163l.179,19.838-14.934.135-.036-3.883,10.628-.095-.036-4.025-9.352.084-.034-3.882,9.351-.084-.038-4.166-10.769.098-.035-3.883,15.077-.136Z" fill="#db4e3b" stroke-width="0"/>
          <path d="M256.933,532.57l-2.014,19.735-4.342-.443,1.614-15.816-9.839-1.004.4-3.919,14.181,1.447Z" fill="#db4e3b" stroke-width="0"/>
          <path d="M211.282,531.128c.761-1.069,1.693-1.936,2.799-2.6s2.346-1.105,3.719-1.322c1.375-.217,2.818-.157,4.33.178l7.552,1.679-4.303,19.365-7.553-1.678c-1.512-.336-2.844-.889-4-1.658-1.154-.77-2.092-1.689-2.814-2.759-.719-1.07-1.198-2.245-1.436-3.526-.238-1.283-.205-2.606.098-3.971l.012-.055c.303-1.365.834-2.583,1.595-3.653ZM214.14,535.77c-.188.849-.219,1.664-.093,2.446.126.783.386,1.489.777,2.118.393.629.917,1.167,1.572,1.613.656.445,1.418.764,2.285.956l3.292.732,2.593-11.675-3.291-.731c-.867-.193-1.692-.231-2.472-.114-.781.117-1.482.378-2.103.781-.622.404-1.153.925-1.596,1.561-.441.637-.758,1.389-.951,2.257l-.012.055Z" fill="#db4e3b" stroke-width="0"/>
          <path d="M178.344,520.223c.919-.983,1.977-1.755,3.175-2.316,1.197-.561,2.497-.874,3.897-.939s2.82.163,4.258.683c1.44.522,2.671,1.254,3.696,2.198,1.024.944,1.821,2.006,2.387,3.186.567,1.18.885,2.44.952,3.78.066,1.341-.141,2.678-.623,4.01l-.02.053c-.483,1.333-1.183,2.49-2.102,3.473-.919.983-1.978,1.755-3.176,2.316-1.197.561-2.496.874-3.896.94-1.4.064-2.819-.164-4.259-.685-1.439-.521-2.671-1.254-3.695-2.198s-1.82-2.006-2.387-3.186c-.567-1.181-.884-2.44-.951-3.781-.067-1.341.14-2.677.623-4.009l.019-.053c.483-1.332,1.184-2.491,2.103-3.473ZM180.531,525.25c-.29.8-.426,1.605-.407,2.414.018.811.183,1.574.496,2.29.313.716.759,1.355,1.341,1.918.579.561,1.279.99,2.095,1.287.835.303,1.649.427,2.442.373.794-.055,1.531-.258,2.212-.615.682-.356,1.288-.835,1.818-1.437.529-.602.938-1.303,1.228-2.103l.02-.052c.289-.8.425-1.605.407-2.415-.018-.81-.184-1.574-.497-2.289-.313-.716-.754-1.354-1.326-1.913-.571-.559-1.273-.989-2.108-1.291-.818-.296-1.627-.419-2.428-.368-.803.051-1.545.255-2.227.61-.681.356-1.286.834-1.817,1.438-.529.601-.939,1.302-1.228,2.102l-.019.052Z" fill="#db4e3b" stroke-width="0"/>
          <path d="M156.356,503.241l.853,7.592,3.046,1.578,2.921-5.636,3.875,2.007-9.126,17.614-8.053-4.171c-2.096-1.087-3.463-2.443-4.098-4.072-.636-1.626-.48-3.355.468-5.183l.025-.05c.739-1.426,1.69-2.409,2.851-2.945,1.161-.536,2.412-.723,3.753-.56l-1.044-8.521,4.53,2.348ZM150.27,514.803c-.434.837-.491,1.606-.172,2.304.319.697.958,1.293,1.913,1.789l3.85,1.994,2.622-5.057-3.925-2.034c-.956-.496-1.808-.65-2.555-.462-.746.188-1.314.659-1.707,1.414l-.025.051Z" fill="#db4e3b" stroke-width="0"/>
          <path d="M127.927,504.954l2.365-3.567-7.889-5.229,2.177-3.284,7.89,5.23,4.243-6.401,3.637,2.411-10.961,16.535-12.591-8.347,2.178-3.284,8.951,5.935Z" fill="#db4e3b" stroke-width="0"/>
          <path d="M79.47,446.71c.889-.342,1.758-.482,2.611-.423.854.058,1.68.313,2.479.764.798.45,1.545,1.062,2.239,1.834,1.037,1.152,1.687,2.314,1.953,3.485.266,1.171.323,2.281.174,3.33l-4.113.003c.084-.839.064-1.59-.062-2.252-.124-.662-.421-1.253-.888-1.773-.556-.619-1.185-.929-1.887-.933-.701-.004-1.482.379-2.339,1.15l-9.503,8.546-2.994-3.329,9.652-8.679c.899-.809,1.793-1.383,2.68-1.724Z" fill="#db4e3b" stroke-width="0"/>
          <path d="M72.684,432.376l-15.876,11.895-2.618-3.492,15.877-11.896,2.617,3.493Z" fill="#db4e3b" stroke-width="0"/>
          <path d="M56.297,407.85l1.994,3.298-12.947,17.201-2.493-4.122,9.273-11.667-14.64,2.791-2.434-4.026,21.247-3.474Z" fill="#db4e3b" stroke-width="0"/>
          <path d="M40.051,376.069l-3.321,3.472,3.425,7.657,4.803-.162,1.816,4.061-21.71.398-1.643-3.672,14.767-15.921,1.863,4.166ZM29.053,387.572l6.948-.222-2.152-4.812-4.796,5.034Z" fill="#db4e3b" stroke-width="0"/>
          <path d="M29.242,344.854l-12.406,3.719,9.72,2.915.033.108-6.448,7.702,12.324-3.695,1.237,4.126-19.001,5.698-1.351-4.506,6.537-7.404-9.533-2.586-1.351-4.506,19.002-5.698,1.238,4.127Z" fill="#db4e3b" stroke-width="0"/>
          <path d="M17.488,311.055c1.166.22,2.179.641,3.038,1.265.86.623,1.559,1.437,2.099,2.439.539,1.003.916,2.157,1.132,3.461.434,2.628.049,4.818-1.155,6.568-1.204,1.749-3.25,2.864-6.139,3.342l-11.185,1.848-.711-4.306,11.072-1.83c1.604-.265,2.749-.837,3.436-1.717.688-.879.922-1.981.704-3.305-.218-1.322-.782-2.292-1.688-2.91-.905-.616-2.141-.794-3.708-.535l-11.212,1.853-.712-4.306,11.045-1.826c1.491-.246,2.819-.259,3.986-.041Z" fill="#db4e3b" stroke-width="0"/>
          <path d="M20.03,282.58l-8.171,6.509,2.476,2.19,6.06-.261.187,4.36-19.819.856-.187-4.36,8.663-.374-9.012-7.667-.227-5.266,8.758,7.706,11.045-8.929.227,5.237Z" fill="#db4e3b" stroke-width="0"/>
          <path d="M5.047,254.69l15.773,1.138-.315,4.352-15.773-1.138-.434,6.02-4.014-.289,1.183-16.394,4.014.289-.435,6.021Z" fill="#db4e3b" stroke-width="0"/>
          <path d="M23.154,236.329l-19.564-3.284.722-4.304,19.564,3.284-.722,4.304Z" fill="#db4e3b" stroke-width="0"/>
          <path d="M27.608,187.38l7.462,2.614-1.442,4.118-7.382-2.585-13.861,3.223,1.686-4.814,9.081-1.834-5.924-7.18,1.64-4.681,8.74,11.14Z" fill="#db4e3b" stroke-width="0"/>
          <path d="M45.66,151.135c.888,1.012,1.553,2.14,1.994,3.387.44,1.247.625,2.57.553,3.97-.072,1.401-.439,2.79-1.098,4.171-.659,1.38-1.51,2.534-2.55,3.462-1.039.927-2.173,1.615-3.403,2.064s-2.515.642-3.856.576c-1.34-.063-2.65-.402-3.928-1.012l-.052-.025c-1.278-.61-2.362-1.421-3.251-2.432-.887-1.011-1.553-2.139-1.994-3.387-.44-1.247-.625-2.57-.553-3.97.072-1.4.438-2.79,1.098-4.171.659-1.381,1.509-2.534,2.548-3.462,1.04-.927,2.175-1.616,3.404-2.064,1.231-.449,2.516-.641,3.856-.577,1.34.065,2.651.403,3.928,1.014l.052.024c1.278.611,2.363,1.422,3.251,2.432ZM40.442,152.82c-.767-.367-1.555-.581-2.363-.642-.808-.061-1.584.028-2.328.27-.743.241-1.423.623-2.039,1.145-.616.523-1.111,1.176-1.486,1.96-.382.802-.585,1.599-.608,2.395-.024.794.107,1.547.395,2.261.288.712.705,1.362,1.252,1.948.547.587,1.205,1.063,1.972,1.429l.051.024c.767.367,1.555.582,2.363.642.809.062,1.584-.029,2.328-.27s1.422-.619,2.033-1.133c.612-.514,1.108-1.171,1.493-1.973.374-.784.575-1.577.603-2.38.028-.804-.102-1.562-.39-2.276-.288-.712-.704-1.361-1.252-1.948-.547-.586-1.204-1.062-1.971-1.429l-.052-.024Z" fill="#db4e3b" stroke-width="0"/>
          <path d="M65.991,128.892c-.272,1.51-.909,3.021-1.914,4.531-.86,1.288-1.856,2.322-2.988,3.1-1.132.778-2.331,1.296-3.592,1.556-1.263.259-2.555.255-3.875-.013-1.321-.268-2.594-.81-3.821-1.628l-.047-.031c-1.178-.786-2.138-1.739-2.88-2.858-.741-1.119-1.243-2.323-1.507-3.612-.266-1.288-.27-2.61-.016-3.962.255-1.351.801-2.655,1.64-3.913.492-.739.992-1.377,1.498-1.915.506-.536,1.026-1.001,1.56-1.394.535-.393,1.095-.723,1.682-.989.587-.267,1.203-.493,1.848-.676l1.233,4.126c-.477.137-.922.294-1.335.472-.415.178-.804.388-1.171.632-.367.243-.721.535-1.061.876-.341.34-.669.746-.983,1.218-.44.66-.713,1.37-.821,2.127-.106.758-.073,1.507.104,2.25.176.743.496,1.442.955,2.101.459.659,1.044,1.225,1.753,1.697l.047.032c.757.504,1.535.848,2.336,1.029.8.183,1.586.207,2.357.074.772-.132,1.489-.414,2.152-.846.664-.432,1.242-1.017,1.734-1.756.902-1.351,1.33-2.713,1.283-4.083l-2.374-1.584-2.438,3.654-3.136-2.092,4.78-7.168,7.168,4.78c.158,1.332.1,2.753-.169,4.265Z" fill="#db4e3b" stroke-width="0"/>
          <path d="M86.73,103.834l-4.551-1.543-5.494,6.339,2.174,4.285-2.914,3.361-9.528-19.51,2.636-3.041,20.666,6.661-2.988,3.448ZM71.658,98.722l3.136,6.205,3.452-3.984-6.588-2.222Z" fill="#db4e3b" stroke-width="0"/>
          <path d="M108.005,74.229l-2.593-3.223,6.8-5.472,2.594,3.224-6.801,5.471Z" fill="#db4e3b" stroke-width="0"/>
          <path d="M158.248,41.998c.133,1.307,0,2.573-.394,3.801-.395,1.228-1.038,2.376-1.929,3.444-.891,1.068-2.016,1.974-3.375,2.716l-6.79,3.71-9.513-17.408,6.79-3.71c1.359-.743,2.727-1.204,4.102-1.386,1.376-.181,2.688-.106,3.934.224,1.246.331,2.38.9,3.404,1.709s1.87,1.826,2.54,3.052l.027.049c.67,1.228,1.071,2.494,1.204,3.799ZM153.04,40.389c-.417-.762-.932-1.397-1.541-1.903-.611-.506-1.271-.866-1.98-1.082-.71-.215-1.458-.274-2.245-.177-.786.096-1.569.357-2.349.782l-2.959,1.619,5.735,10.494,2.96-1.617c.778-.426,1.423-.941,1.934-1.543.511-.601.867-1.258,1.07-1.973.202-.712.259-1.454.172-2.225-.088-.771-.343-1.546-.77-2.325l-.027-.049Z" fill="#db4e3b" stroke-width="0"/>
          <path d="M187.805,30.715c.033,1.186-.165,2.264-.593,3.236-.427.973-1.074,1.829-1.939,2.567-.865.74-1.913,1.352-3.144,1.839-2.475.982-4.697,1.069-6.663.262-1.965-.806-3.487-2.57-4.565-5.293l-4.176-10.539,4.058-1.607,4.134,10.433c.599,1.511,1.4,2.509,2.405,2.995,1.005.486,2.13.481,3.379-.013,1.246-.495,2.075-1.25,2.486-2.266.41-1.015.323-2.261-.262-3.737l-4.185-10.565,4.058-1.607,4.123,10.407c.557,1.406.851,2.701.885,3.888ZM168.74,18.256h0c-.389-.983.092-2.094,1.074-2.483l.29-.115c.982-.389,2.094.092,2.483,1.074h0c.389.982-.092,2.094-1.073,2.483l-.29.115c-.982.389-2.094-.091-2.483-1.074ZM174.378,16.021h0c-.389-.982.092-2.093,1.073-2.482l.29-.115c.982-.389,2.094.092,2.483,1.074h0c.389.982-.092,2.094-1.074,2.483l-.29.115c-.982.389-2.093-.092-2.482-1.074Z" fill="#db4e3b" stroke-width="0"/>
          <path d="M216.309,23.735c-.147.831-.461,1.581-.943,2.247-.482.668-1.114,1.249-1.898,1.742-.784.494-1.696.881-2.736,1.16-1.459.391-2.96.525-4.499.4-1.541-.125-3.024-.554-4.453-1.285l1.69-3.653c1.067.476,2.118.803,3.152.975s2.098.111,3.193-.182c.877-.236,1.514-.577,1.911-1.026s.521-.956.369-1.522l-.015-.055c-.073-.274-.187-.502-.344-.684-.158-.183-.402-.328-.735-.434-.333-.106-.774-.184-1.327-.231-.552-.047-1.257-.063-2.116-.049-1.033.024-1.983-.005-2.848-.086-.865-.08-1.629-.262-2.293-.544-.665-.282-1.232-.701-1.706-1.259-.474-.558-.837-1.311-1.092-2.259l-.015-.054c-.235-.877-.284-1.71-.146-2.5.139-.79.433-1.52.886-2.188.452-.67,1.05-1.251,1.794-1.744.745-.492,1.61-.871,2.595-1.136,1.405-.377,2.753-.514,4.043-.409s2.532.416,3.728.937l-1.338,3.762c-1.014-.353-1.977-.59-2.889-.707-.912-.117-1.778-.066-2.599.155-.821.22-1.394.544-1.719.974-.325.43-.423.882-.296,1.356l.015.054c.082.311.215.564.395.76.18.197.448.345.81.443.359.099.832.158,1.415.178.583.019,1.316.027,2.199.025,1.037-.004,1.98.052,2.824.167.846.116,1.588.328,2.229.635.642.308,1.176.726,1.603,1.258.426.531.753,1.217.978,2.055l.015.055c.254.949.308,1.838.163,2.671Z" fill="#db4e3b" stroke-width="0"/>
          <path d="M244.277,18.635c-.237.81-.629,1.522-1.181,2.132-.552.611-1.244,1.119-2.077,1.525-.832.406-1.78.691-2.845.855-1.494.23-2.999.2-4.516-.091-1.518-.292-2.946-.879-4.287-1.762l2.077-3.446c1.009.59,2.017,1.026,3.027,1.311,1.008.285,2.074.34,3.194.167.896-.138,1.566-.409,2.011-.812.444-.403.622-.894.533-1.473l-.009-.055c-.043-.281-.133-.52-.269-.718-.136-.198-.364-.37-.683-.512-.318-.141-.75-.266-1.294-.373-.543-.107-1.243-.2-2.098-.279-1.031-.09-1.97-.222-2.821-.397-.852-.173-1.591-.438-2.221-.79-.629-.351-1.149-.831-1.559-1.437-.409-.605-.689-1.394-.839-2.365l-.01-.056c-.137-.895-.096-1.729.127-2.5.224-.77.595-1.464,1.117-2.08.523-.615,1.181-1.128,1.974-1.537.794-.409,1.695-.691,2.704-.847,1.438-.222,2.792-.211,4.062.033,1.271.243,2.471.689,3.604,1.336l-1.739,3.594c-.97-.462-1.901-.8-2.795-1.016-.894-.215-1.76-.258-2.601-.129-.84.13-1.445.39-1.815.782-.37.391-.517.83-.442,1.316l.008.055c.048.318.153.584.31.799.157.215.409.391.758.529.347.137.81.248,1.389.331.577.081,1.305.17,2.181.264,1.033.108,1.963.266,2.79.473.827.206,1.544.498,2.148.873.603.375,1.089.849,1.455,1.423.367.575.616,1.291.749,2.15l.009.056c.149.971.106,1.862-.129,2.673Z" fill="#db4e3b" stroke-width="0"/>
          <path d="M258.999,20.447l-.833-19.82,14.922-.627.163,3.879-10.618.446.169,4.02,9.344-.392.163,3.878-9.343.393.175,4.163,10.76-.452.163,3.879-15.064.633Z" fill="#db4e3b" stroke-width="0"/>
          <path d="M287.955,20.083l1.359-19.791,4.354.299-1.089,15.862,9.867.676-.27,3.93-14.222-.976Z" fill="#db4e3b" stroke-width="0"/>
          <path d="M333.62,20.009c-.724,1.095-1.628,1.991-2.712,2.692s-2.307,1.182-3.672,1.444c-1.367.263-2.811.252-4.334-.034l-7.604-1.426,3.657-19.498,7.605,1.426c1.522.286,2.873.794,4.053,1.525,1.179.731,2.147,1.619,2.902,2.663.755,1.046,1.273,2.205,1.554,3.478.28,1.273.291,2.597.034,3.971l-.011.055c-.258,1.375-.749,2.609-1.473,3.703ZM330.609,15.465c.16-.854.165-1.67.013-2.448s-.435-1.475-.848-2.091c-.412-.616-.955-1.135-1.624-1.56-.671-.423-1.442-.717-2.315-.881l-3.314-.621-2.205,11.754,3.314.622c.873.164,1.698.174,2.474.031s1.469-.426,2.076-.85,1.123-.962,1.543-1.614c.419-.652.712-1.413.875-2.287l.011-.056Z" fill="#db4e3b" stroke-width="0"/>
          <path d="M366.912,29.827c-.886,1.014-1.918,1.819-3.097,2.419-1.179.599-2.467.955-3.865,1.067-1.397.11-2.823-.07-4.279-.544-1.455-.474-2.711-1.166-3.765-2.076-1.055-.91-1.886-1.944-2.491-3.106-.606-1.161-.964-2.41-1.075-3.748-.111-1.337.052-2.68.492-4.027l.017-.054c.439-1.347,1.101-2.527,1.986-3.539.886-1.014,1.92-1.82,3.099-2.42,1.178-.599,2.466-.955,3.864-1.066,1.397-.111,2.824.07,4.278.543,1.456.474,2.711,1.166,3.765,2.076,1.056.91,1.887,1.946,2.492,3.106.605,1.162.963,2.41,1.075,3.748s-.053,2.68-.492,4.027l-.017.054c-.439,1.347-1.102,2.527-1.987,3.54ZM364.561,24.874c.264-.808.373-1.618.328-2.427s-.234-1.567-.571-2.272c-.336-.706-.804-1.33-1.403-1.872-.597-.543-1.311-.949-2.137-1.218-.845-.275-1.663-.373-2.453-.291-.791.079-1.522.309-2.191.687-.67.378-1.259.877-1.77,1.496-.508.619-.894,1.332-1.159,2.14l-.017.054c-.262.808-.373,1.618-.328,2.426.045.809.235,1.567.571,2.273.338.705.801,1.328,1.389,1.867.59.54,1.306.947,2.151,1.223.826.268,1.64.365,2.44.287.8-.077,1.535-.304,2.204-.683.67-.378,1.259-.875,1.769-1.495s.896-1.333,1.159-2.141l.017-.053Z" fill="#db4e3b" stroke-width="0"/>
          <path d="M389.474,46.072l-1.148-7.553-3.103-1.458-2.7,5.744-3.951-1.857,8.438-17.954,8.207,3.858c2.138,1.004,3.556,2.307,4.255,3.908.697,1.602.609,3.335-.267,5.199l-.024.051c-.682,1.453-1.594,2.47-2.734,3.052-1.139.581-2.383.817-3.729.706l1.373,8.472-4.617-2.169ZM395.107,34.284c.402-.855.43-1.623.083-2.309-.347-.684-1.007-1.257-1.981-1.714l-3.925-1.844-2.423,5.156,4.001,1.88c.975.458,1.831.579,2.57.363.739-.217,1.288-.711,1.65-1.479l.024-.052Z" fill="#db4e3b" stroke-width="0"/>
          <path d="M417.787,43.443l-2.247,3.642,8.056,4.969-2.067,3.352-8.057-4.968-4.031,6.537-3.714-2.291,10.412-16.885,12.857,7.929-2.067,3.352-9.142-5.638Z" fill="#db4e3b" stroke-width="0"/>
          <path d="M447.891,76.413l2.74-3.101,6.541,5.78-2.739,3.1-6.542-5.779Z" fill="#db4e3b" stroke-width="0"/>
        </g>
      </g>
    </g>
  </g>
</svg>