<?xml version="1.0" encoding="UTF-8"?>
<svg id="b" data-name="Layer 2" xmlns="http://www.w3.org/2000/svg" width="710.166" height="289.497" viewBox="0 0 710.166 289.497">
  <g id="c" data-name="Art">
    <g id="d" data-name="Full Logo - Lavender Violet - Light">
      <g>
        <g>
          <path d="M202.993,224.385v5.501h-11.739v44.094h-1.628l-4.494-4.901v-24.508h-12.166c3.46,3.539,5.191,6.78,5.191,9.725,0,2.713-.898,4.967-2.694,6.761-1.794,1.796-4.074,2.694-6.839,2.694-3.41,0-6.749-1.995-10.016-5.982-3.268-3.987-6.154-9.491-8.66-16.512l1.551-.949c5.269,11.831,10.5,17.745,15.691,17.745,1.551,0,2.815-.47,3.797-1.413.982-.942,1.473-2.189,1.473-3.739,0-1.163-.433-2.551-1.298-4.166-.866-1.614-3.739-4.825-8.622-9.629h22.59v-9.223h-37.818v-5.501h55.68Z" fill="#7880a9" stroke-width="0"/>
          <path d="M228.333,224.385v5.501h-11.739v44.094h-1.511l-4.573-5.173v-38.922h-8.641v-5.501h12.797c-5.297-11.134-11.486-16.7-18.567-16.7-2.738,0-4.709.658-5.911,1.976-1.201,1.317-1.52,2.801-1.802,4.377-.879,4.913,2.858,9.437,3.348,10.702h-5.191c-.542-1.472-4.614-2.903-3.859-11.9.261-3.114,1.506-5.995,3.649-7.985,2.145-1.989,5-2.983,8.567-2.983,4.599,0,8.598,1.641,11.995,4.921,3.397,3.28,6.633,9.144,9.71,17.592h11.73Z" fill="#7880a9" stroke-width="0"/>
          <path d="M275.295,224.385v5.501h-11.779v43.979h-1.627l-4.456-4.98v-12.844c-4.444,3.048-8.356,4.572-11.741,4.572-3.1,0-6.194-1.543-9.28-4.63-3.087-3.086-4.63-6.012-4.63-8.777,0-3.046,1.679-5.501,5.037-7.362,3.358-1.859,6.78-2.789,10.268-2.789,3.435,0,6.885,1.731,10.347,5.191v-12.361h-30.224v-5.501h48.086ZM257.434,246.818v-1.937c-2.248-1.628-4.469-2.441-6.665-2.441-3.048,0-6.265.833-9.648,2.499-3.385,1.666-5.076,3.544-5.076,5.637,0,1.654.568,3.029,1.704,4.126,1.137,1.099,2.468,1.647,3.992,1.647,1.756,0,4.752-1.246,8.989-3.739s6.472-4.423,6.704-5.794Z" fill="#7880a9" stroke-width="0"/>
          <path d="M333.845,224.385v5.501h-20.151v44.094h-1.744l-4.339-5.095v-15.595h-15.925v6.586c0,1.551-.504,2.325-1.511,2.325-.982,0-3.223-1.88-6.723-5.637-3.5-3.759-5.25-6.271-5.25-7.537,0-.8.607-1.2,1.821-1.2h5.58v-17.941h-11.471v-5.501h59.713ZM291.686,247.827h15.925v-17.941h-15.925v17.941Z" fill="#7880a9" stroke-width="0"/>
          <path d="M307.824,274.45l-.205-5.607c.827-.155,2.001-.232,3.525-.232,3.487,0,6.387.994,8.699,2.985,2.311,1.989,3.468,4.584,3.468,7.787,0,3.152-1.113,5.625-3.334,7.42-2.223,1.796-5.155,2.694-8.799,2.694-3.851,0-7.727-1.344-11.629-4.031-3.902-2.686-7.43-6.535-10.582-11.546h2.441c5.092,7.362,11.823,11.044,20.197,11.044,6.382,0,9.575-1.821,9.575-5.463,0-1.473-.879-2.746-2.634-3.816-1.755-1.073-3.884-1.609-6.388-1.609-1.342,0-3.562.246-4.335.376Z" fill="#7880a9" stroke-width="0"/>
          <path d="M421.004,224.385v5.501h-79.499v43.979h-1.744l-4.341-4.98v-38.999h-8.641v-5.501h9.34c-1.551-3.1-2.918-6.902-2.918-9.615,0-9.378,7.611-13.705,21.227-13.508,12.495.18,20.734,6.048,26.051,11.9,3.668,4.037,7.076,7.397,9.327,11.578h-2.573c-5.146-6.111-13.186-17.368-31.697-18.799-10.692-.827-16.546,2.396-16.087,11.042.121,2.27.685,4.741,2.055,7.401h79.499Z" fill="#7880a9" stroke-width="0"/>
          <path d="M494.68,224.706v5.501h-11.78v44.094h-.813l-5.271-5.288v-12.342c-4.727,3.1-8.951,4.649-12.669,4.649s-6.949-1.439-9.687-4.32c-2.74-2.879-4.109-6.244-4.109-10.094,6.432,0,9.648-2.996,9.648-8.989,0-1.834-.683-4.404-2.052-7.711h-10.851v-5.501h47.583ZM476.816,230.208h-14.996c1.42,4.056,2.131,7.531,2.131,10.424,0,3.332-.917,6.064-2.751,8.195-1.834,2.131-4.338,3.326-7.517,3.584,1.655,3.72,4.301,5.579,7.944,5.579,3.718,0,8.783-3.073,15.189-9.221v-18.561Z" fill="#7880a9" stroke-width="0"/>
          <path d="M519.983,224.706v5.501h-11.742v44.094h-1.432l-4.651-5.405v-38.689h-8.641v-5.501h10.743l-5.928-7.711c-2.608-3.383-5.062-5.56-7.364-6.529-2.302-.969-5.701-1.453-10.196-1.453h-5.271l-2.482-6.587h4.186c4.629,0,8.363.542,11.205,1.628,2.842,1.084,6.472,4.637,10.889,10.655l7.401,9.997h13.282Z" fill="#7880a9" stroke-width="0"/>
          <path d="M397.992,224.385h13.282v5.501h-11.742v44.094h-1.432l-4.651-5.405v-38.689h-8.641v-5.501h10.743" fill="#7880a9" stroke-width="0"/>
          <path d="M567.021,224.706v5.501h-11.742v43.979h-1.821l-4.262-5.057v-38.922h-12.903c1.084,12.942,1.628,20.279,1.628,22.008,0,5.296-1.113,7.944-3.332,7.944-.749,0-1.568-.394-2.46-1.182-.892-.787-2.732-3.015-5.522-6.684-2.789-3.668-4.183-6.031-4.183-7.09,0-1.162.749-1.744,2.248-1.744.436,0,1.11.052,2.014.155.904.103,1.639.155,2.205.155,1.963,0,2.947-.737,2.947-2.208v-11.354h-12.98v-5.501h48.163Z" fill="#7880a9" stroke-width="0"/>
          <polygon points="394.953 239.856 357.967 239.856 360.861 245.645 394.631 245.645 394.953 239.856" fill="#7880a9" stroke-width="0"/>
          <path d="M378.872,245.324s-9.97,3.859-7.076,10.935c2.895,7.076,13.186,18.011,13.186,18.011l-2.573.643s-14.151-12.865-15.116-21.549c-.965-8.684,6.754-9.327,6.754-9.327l4.824,1.286Z" fill="#7880a9" stroke-width="0"/>
          <path d="M399.134,243.394s8.041-4.181,13.186,1.286c8.111,8.618,2.573,23.8,2.573,23.8l-5.468-4.503s6.27-10.214,2.895-14.795c-4.503-6.111-10.614-3.538-13.508,1.286-2.895,4.824.322-7.076.322-7.076Z" fill="#7880a9" stroke-width="0"/>
        </g>
        <g>
          <path d="M35.79,8.962c0-4.27-1.099-5.047-4.141-6.729v-.519h14.108v.519c-3.042,1.682-4.077,2.459-4.077,6.729v24.396c0,9.06-6.342,14.301-14.883,14.301-8.347,0-14.301-4.982-14.301-11.389,0-3.883,2.718-6.406,6.082-6.406,1.36,0,2.459.388,3.172,1.035-1.876,1.23-3.236,2.978-3.236,6.276,0,4.66,3.364,7.96,8.283,7.96,6.406,0,8.994-4.788,8.994-12.102V8.962Z" fill="#7880a9" stroke-width="0"/>
          <path d="M61.123,2.233v-.519h14.106v.519c-3.042,1.682-4.141,2.459-4.141,6.729v30.802c0,4.271,1.099,5.047,4.141,6.731v.517h-14.106v-.517c3.042-1.684,4.077-2.459,4.077-6.731V8.962c0-4.27-1.035-5.047-4.077-6.729Z" fill="#7880a9" stroke-width="0"/>
          <path d="M123.375,8.445c.583-1.294.713-1.618.713-2.459,0-1.36-1.296-2.201-4.141-3.753v-.519h12.164v.519c-2.846,2.005-3.753,2.976-5.563,6.859l-17.601,38.566h-.324l-17.601-38.566c-1.746-3.883-2.653-4.854-5.501-6.859v-.519h14.108v.519c-2.653,1.164-3.494,1.941-3.494,3.3,0,.841.323,1.488.841,2.782l13.265,29.766,13.135-29.636Z" fill="#7880a9" stroke-width="0"/>
          <path d="M142.923,47.011h-12.166v-.517c2.848-2.007,3.947-2.978,5.759-6.861L154.636.939h.323l18.119,38.694c1.876,3.883,2.652,4.854,5.499,6.861v.517h-14.106v-.517c2.718-1.165,3.559-1.942,3.559-3.3,0-.841-.258-1.49-.905-2.783l-3.883-8.347h-19.93l-3.753,8.283c-.583,1.23-.777,1.941-.777,2.718,0,1.36,1.294,2.071,4.141,3.43v.517ZM144.541,29.41h17.471l-8.8-18.96-8.671,18.96Z" fill="#7880a9" stroke-width="0"/>
          <path d="M229.432,1.714h11.195v.519c-3.04,1.682-4.075,2.459-4.075,6.729v30.802c0,4.271,1.035,5.047,4.075,6.731v.517h-14.04v-.517c3.04-1.684,4.075-2.459,4.075-6.731V5.856l-17.923,41.866h-.26l-18.118-41.866v33.844c0,4.27,1.746,5.111,4.852,6.795v.517h-12.813v-.517c3.042-1.684,4.79-2.525,4.79-6.795V8.962c0-4.27-1.035-5.047-4.077-6.729v-.519h12.1l15.336,35.396L229.432,1.714Z" fill="#7880a9" stroke-width="0"/>
          <path d="M286.656,2.233v-.519h12.877v.519c-3.04,1.682-4.722,2.523-4.722,6.795v20.641c0,11.841-7.508,17.989-17.795,17.989-12.813,0-18.766-7.053-18.766-17.989V8.962c0-4.27-1.099-5.047-4.141-6.729v-.519h14.17v.519c-3.04,1.682-4.141,2.459-4.141,6.729v19.93c0,10.225,4.984,15.338,13.267,15.338,8.475,0,14.17-4.53,14.17-15.272V9.028c0-4.271-1.812-5.113-4.918-6.795Z" fill="#7880a9" stroke-width="0"/>
          <path d="M312.429,47.011v-.517c3.042-1.684,4.077-2.459,4.077-6.731V8.962c0-4.27-1.035-5.047-4.077-6.729v-.519h14.106v.519c-3.042,1.682-4.141,2.459-4.141,6.729v16.76l19.736-18.378c.907-.905,1.294-1.616,1.294-2.393,0-1.035-1.164-1.748-2.782-2.718v-.519h13.395v.519c-4.271,2.005-6.859,3.881-9.901,6.729l-12.424,11.519,16.307,19.283c2.782,3.236,5.305,5.501,8.088,6.731v.517h-14.366v-.517c1.101-.649,2.007-1.165,2.007-2.137,0-.905-.453-1.488-1.554-2.912l-14.687-17.212-5.113,4.594v10.936c0,4.271,1.099,5.047,4.141,6.731v.517h-14.106Z" fill="#7880a9" stroke-width="0"/>
          <path d="M399.184,1.714c1.941,0,2.912-.194,3.883-.388l2.135,12.166h-.583c-3.753-5.629-5.888-9.382-11.906-9.382h-6.406v35.59c0,4.27,1.164,5.111,4.724,6.795v.517h-15.272v-.517c3.559-1.684,4.658-2.525,4.658-6.795V4.109h-6.34c-6.084,0-8.219,3.753-11.971,9.382h-.583l2.135-12.166c.971.194,1.942.388,3.883.388h31.643Z" fill="#7880a9" stroke-width="0"/>
          <path d="M418.42,2.233v-.519h14.106v.519c-3.042,1.682-4.141,2.459-4.141,6.729v30.802c0,4.271,1.099,5.047,4.141,6.731v.517h-14.106v-.517c3.04-1.684,4.075-2.459,4.075-6.731V8.962c0-4.27-1.035-5.047-4.075-6.729Z" fill="#7880a9" stroke-width="0"/>
          <path d="M502.728,8.121c.713-1.035.905-2.007.905-2.523,0-1.23-1.23-2.071-3.3-3.364v-.519h11.391v.519c-2.589,1.941-3.883,3.364-6.02,6.729l-12.164,19.155v11.647c0,4.271,1.099,5.047,4.658,6.731v.517h-15.142v-.517c3.559-1.684,4.66-2.459,4.66-6.731v-11.647l-12.166-19.155c-2.137-3.364-3.364-4.788-6.018-6.729v-.519h13.201v.519c-1.684,1.035-2.137,1.811-2.137,2.976,0,.971.258,1.876.971,2.912l10.612,16.824,10.548-16.824Z" fill="#7880a9" stroke-width="0"/>
          <path d="M544.472,1.067c12.943,0,22.455,9.707,22.455,23.296s-9.512,23.294-22.455,23.294-22.453-9.707-22.453-23.294,9.512-23.296,22.453-23.296ZM544.472,3.979c-9.835,0-15.788,8.154-15.788,20.384s5.954,20.382,15.788,20.382,15.788-8.153,15.788-20.382-5.952-20.384-15.788-20.384Z" fill="#7880a9" stroke-width="0"/>
          <path d="M615.268,32.646c0-4.271-1.099-4.982-4.141-6.731v-.517h14.172v.517c-3.106,1.748-4.206,2.459-4.206,6.731v14.947h-1.49l-3.429-6.47c-2.523,3.817-7.7,6.535-14.042,6.535-13.071,0-22.647-9.382-22.647-23.036,0-13.784,9.965-23.554,23.619-23.554,5.241,0,9.318,1.618,11.971,3.559l3.493-3.559h.454v13.524h-.519c-3.689-6.082-7.958-10.74-15.077-10.74-10.223,0-17.212,8.347-17.212,20.577,0,12.036,7.053,19.802,17.472,19.802,4.722,0,8.735-1.618,11.581-5.501v-6.082Z" fill="#7880a9" stroke-width="0"/>
          <path d="M646.012,47.011h-12.164v-.517c2.846-2.007,3.947-2.978,5.758-6.861L657.725.939h.323l18.119,38.694c1.876,3.883,2.653,4.854,5.499,6.861v.517h-14.106v-.517c2.718-1.165,3.56-1.942,3.56-3.3,0-.841-.26-1.49-.907-2.783l-3.883-8.347h-19.93l-3.753,8.283c-.583,1.23-.777,1.941-.777,2.718,0,1.36,1.294,2.071,4.141,3.43v.517ZM647.63,29.41h17.471l-8.8-18.96-8.671,18.96Z" fill="#7880a9" stroke-width="0"/>
          <path d="M702.618,9.149c0,5.032-4.093,9.147-9.17,9.147-5.034,0-9.17-4.115-9.17-9.147,0-5.079,4.136-9.149,9.17-9.149,5.077,0,9.17,4.07,9.17,9.149ZM701.852,9.149c0-4.532-3.853-8.427-8.404-8.427s-8.383,3.895-8.383,8.427c0,4.508,3.851,8.425,8.383,8.425s8.404-3.917,8.404-8.425ZM689.312,3.917l3.238-.13c2.211-.087,3.983.437,3.983,2.45,0,1.992-1.224,2.582-2.778,2.735,1.05.089,2.276,1.007,2.45,2.737.219,2.231.898,2.21,2.233,2.21l-.132.415c-2.714.7-3.633-.415-3.938-1.62-.264-1.094.305-3.259-1.707-3.653-.285-.066-.592,0-.592,0v4.443c0,.217,0,.307.087.307l.811.109v.415h-3.655v-.415l.764-.109c.132,0,.132-.089.132-.307V4.749c0-.241,0-.307-.132-.307l-.764-.132v-.394ZM692.069,8.557h.307c1.882,0,2.297-1.116,2.297-2.233,0-2.122-1.729-2.363-2.603-2.101v4.334Z" fill="#7880a9" stroke-width="0"/>
        </g>
        <g>
          <path d="M55.59,144.696c-1.619,3.838-3.912,7.166-6.881,9.984-2.969,2.819-6.508,5.037-10.614,6.656-4.108,1.619-8.621,2.429-13.538,2.429H0v-62.966h24.557c4.917,0,9.43.795,13.538,2.383,4.106,1.59,7.646,3.794,10.614,6.612,2.969,2.819,5.262,6.132,6.881,9.939,1.619,3.809,2.429,7.931,2.429,12.368v.18c0,4.438-.81,8.576-2.429,12.414ZM43.537,132.282c0-2.757-.466-5.307-1.395-7.646-.931-2.339-2.22-4.348-3.868-6.027-1.65-1.678-3.643-2.982-5.981-3.912s-4.918-1.395-7.736-1.395h-10.704v37.96h10.704c2.818,0,5.397-.45,7.736-1.35s4.331-2.188,5.981-3.868c1.648-1.678,2.938-3.657,3.868-5.937.929-2.278,1.395-4.826,1.395-7.646v-.18Z" fill="#7880a9" stroke-width="0"/>
          <path d="M131.284,148.833c-1.29,3.539-3.134,6.491-5.531,8.86-2.399,2.369-5.308,4.138-8.726,5.307s-7.228,1.754-11.424,1.754c-8.456,0-15.112-2.339-19.97-7.016-4.857-4.678-7.286-11.663-7.286-20.959v-35.98h13.853v35.62c0,5.158,1.199,9.04,3.599,11.649,2.397,2.608,5.726,3.913,9.984,3.913s7.586-1.26,9.984-3.778,3.599-6.297,3.599-11.334v-36.07h13.853v35.53c0,4.799-.646,8.966-1.935,12.504ZM89.592,89.78h0c0-3.353,2.718-6.071,6.071-6.071h.99c3.353,0,6.071,2.718,6.071,6.071h0c0,3.353-2.718,6.071-6.071,6.071h-.99c-3.353,0-6.071-2.718-6.071-6.071ZM108.842,89.78h0c0-3.353,2.718-6.071,6.071-6.071h.99c3.353,0,6.071,2.718,6.071,6.071h0c0,3.353-2.718,6.071-6.071,6.071h-.99c-3.353,0-6.071-2.718-6.071-6.071Z" fill="#7880a9" stroke-width="0"/>
          <path d="M200.153,153.465c-1.133,2.429-2.711,4.469-4.736,6.117-2.026,1.65-4.444,2.909-7.252,3.778-2.81.868-5.923,1.304-9.341,1.304-4.799,0-9.506-.825-14.123-2.474-4.618-1.648-8.815-4.183-12.593-7.601l8.186-9.805c2.878,2.339,5.831,4.198,8.86,5.577,3.027,1.38,6.342,2.068,9.939,2.068,2.879,0,5.112-.524,6.701-1.574,1.589-1.049,2.384-2.503,2.384-4.362v-.18c0-.9-.166-1.694-.496-2.384-.331-.689-.963-1.334-1.895-1.935-.932-.599-2.225-1.198-3.878-1.799-1.654-.599-3.803-1.229-6.448-1.889-3.188-.779-6.073-1.649-8.659-2.609-2.586-.958-4.78-2.143-6.583-3.553-1.805-1.408-3.202-3.162-4.194-5.262-.992-2.099-1.488-4.707-1.488-7.826v-.18c0-2.879.535-5.472,1.607-7.781,1.072-2.308,2.576-4.302,4.514-5.981,1.937-1.679,4.248-2.969,6.938-3.868,2.688-.899,5.651-1.35,8.89-1.35,4.617,0,8.86.69,12.728,2.069,3.868,1.38,7.422,3.359,10.66,5.937l-7.196,10.435c-2.819-1.918-5.577-3.432-8.275-4.542-2.699-1.109-5.397-1.665-8.096-1.665s-4.723.526-6.072,1.574c-1.35,1.051-2.023,2.354-2.023,3.913v.18c0,1.021.195,1.905.586,2.654.391.75,1.096,1.425,2.119,2.023,1.021.601,2.421,1.17,4.194,1.709,1.773.54,4.013,1.17,6.72,1.89,3.187.84,6.026,1.784,8.522,2.833,2.495,1.05,4.599,2.31,6.313,3.778,1.714,1.47,3.007,3.193,3.878,5.172.871,1.979,1.309,4.349,1.309,7.106v.18c0,3.119-.566,5.892-1.698,8.32Z" fill="#7880a9" stroke-width="0"/>
          <path d="M266.718,153.465c-1.133,2.429-2.711,4.469-4.736,6.117-2.027,1.65-4.444,2.909-7.253,3.778-2.81.868-5.923,1.304-9.341,1.304-4.798,0-9.505-.825-14.122-2.474-4.618-1.648-8.815-4.183-12.594-7.601l8.186-9.805c2.879,2.339,5.832,4.198,8.86,5.577,3.027,1.38,6.342,2.068,9.94,2.068,2.878,0,5.111-.524,6.701-1.574,1.588-1.049,2.384-2.503,2.384-4.362v-.18c0-.9-.166-1.694-.496-2.384-.332-.689-.963-1.334-1.895-1.935-.933-.599-2.226-1.198-3.878-1.799-1.654-.599-3.804-1.229-6.448-1.889-3.188-.779-6.073-1.649-8.66-2.609-2.586-.958-4.779-2.143-6.583-3.553-1.805-1.408-3.201-3.162-4.194-5.262-.992-2.099-1.488-4.707-1.488-7.826v-.18c0-2.879.536-5.472,1.608-7.781,1.072-2.308,2.576-4.302,4.513-5.981,1.937-1.679,4.249-2.969,6.938-3.868,2.688-.899,5.651-1.35,8.89-1.35,4.617,0,8.86.69,12.729,2.069,3.868,1.38,7.421,3.359,10.659,5.937l-7.196,10.435c-2.819-1.918-5.577-3.432-8.275-4.542-2.698-1.109-5.397-1.665-8.096-1.665s-4.723.526-6.071,1.574c-1.35,1.051-2.024,2.354-2.024,3.913v.18c0,1.021.195,1.905.586,2.654.391.75,1.097,1.425,2.12,2.023,1.021.601,2.42,1.17,4.193,1.709,1.774.54,4.013,1.17,6.72,1.89,3.187.84,6.027,1.784,8.523,2.833,2.494,1.05,4.599,2.31,6.313,3.778,1.713,1.47,3.006,3.193,3.878,5.172.871,1.979,1.309,4.349,1.309,7.106v.18c0,3.119-.566,5.892-1.698,8.32Z" fill="#7880a9" stroke-width="0"/>
          <path d="M289.465,163.765v-62.966h47.404v12.323h-33.732v12.772h29.685v12.324h-29.685v13.223h34.182v12.323h-47.854Z" fill="#7880a9" stroke-width="0"/>
          <path d="M358.728,163.765v-62.966h13.853v50.463h31.393v12.503h-45.245Z" fill="#7880a9" stroke-width="0"/>
          <path d="M478.991,144.696c-1.619,3.838-3.912,7.166-6.881,9.984-2.969,2.819-6.508,5.037-10.614,6.656-4.108,1.619-8.621,2.429-13.538,2.429h-24.557v-62.966h24.557c4.917,0,9.43.795,13.538,2.383,4.106,1.59,7.646,3.794,10.614,6.612,2.969,2.819,5.262,6.132,6.881,9.939,1.619,3.809,2.429,7.931,2.429,12.368v.18c0,4.438-.81,8.576-2.429,12.414ZM466.938,132.282c0-2.757-.466-5.307-1.395-7.646-.931-2.339-2.22-4.348-3.868-6.027-1.65-1.678-3.643-2.982-5.981-3.912s-4.918-1.395-7.736-1.395h-10.704v37.96h10.704c2.818,0,5.397-.45,7.736-1.35s4.331-2.188,5.981-3.868c1.648-1.678,2.938-3.657,3.868-5.937.929-2.278,1.395-4.826,1.395-7.646v-.18Z" fill="#7880a9" stroke-width="0"/>
          <path d="M564.355,144.92c-1.68,3.928-4.003,7.376-6.971,10.345-2.969,2.968-6.508,5.307-10.614,7.016-4.108,1.709-8.591,2.563-13.448,2.563s-9.325-.854-13.402-2.563c-4.079-1.709-7.602-4.017-10.569-6.926-2.969-2.908-5.278-6.326-6.927-10.255-1.649-3.927-2.474-8.141-2.474-12.639v-.18c0-4.497.839-8.71,2.519-12.638,1.679-3.927,4.003-7.376,6.972-10.345,2.968-2.969,6.506-5.308,10.614-7.017,4.106-1.709,8.59-2.563,13.447-2.563s9.324.854,13.403,2.563c4.077,1.709,7.601,4.019,10.569,6.927,2.969,2.909,5.276,6.327,6.926,10.254,1.649,3.929,2.474,8.142,2.474,12.639v.18c0,4.498-.84,8.712-2.519,12.639ZM552.393,132.282c0-2.698-.466-5.246-1.395-7.646-.931-2.397-2.249-4.498-3.958-6.297s-3.733-3.223-6.071-4.272c-2.339-1.049-4.889-1.574-7.646-1.574-2.819,0-5.383.51-7.69,1.529-2.31,1.021-4.288,2.429-5.938,4.228s-2.938,3.884-3.867,6.252c-.931,2.369-1.395,4.902-1.395,7.601v.18c0,2.699.464,5.248,1.395,7.646.929,2.398,2.248,4.497,3.958,6.296,1.709,1.8,3.717,3.225,6.026,4.273,2.308,1.05,4.871,1.574,7.69,1.574,2.758,0,5.308-.509,7.646-1.529,2.339-1.02,4.332-2.429,5.981-4.228,1.648-1.8,2.938-3.883,3.868-6.252.929-2.368,1.395-4.902,1.395-7.602v-.18Z" fill="#7880a9" stroke-width="0"/>
          <path d="M626.422,163.765l-13.493-20.149h-10.884v20.149h-13.853v-62.966h28.784c7.495,0,13.327,1.829,17.495,5.486,4.168,3.659,6.252,8.757,6.252,15.292v.18c0,5.098-1.245,9.251-3.732,12.459-2.489,3.208-5.743,5.562-9.76,7.061l15.381,22.488h-16.19ZM626.691,122.297c0-2.998-.96-5.247-2.879-6.746-1.92-1.499-4.587-2.249-8.005-2.249h-13.763v18.08h14.032c3.418,0,6.041-.81,7.871-2.429,1.828-1.619,2.743-3.777,2.743-6.477v-.18Z" fill="#7880a9" stroke-width="0"/>
          <path d="M676.074,113.302v13.583h30.044v12.503h-30.044v24.377h-13.853v-62.966h47.944v12.503h-34.092Z" fill="#7880a9" stroke-width="0"/>
        </g>
      </g>
    </g>
  </g>
</svg>