<?xml version="1.0" encoding="UTF-8"?>
<svg id="b" data-name="Layer 2" xmlns="http://www.w3.org/2000/svg" width="905.814" height="43.095" viewBox="0 0 905.814 43.095">
  <g id="c" data-name="Art">
    <g id="d" data-name="Horizontal Logo - Living Coral - Light">
      <g>
        <path d="M569.36,31.348c-.832,1.973-2.011,3.683-3.537,5.132-1.525,1.449-3.345,2.589-5.456,3.422-2.112.832-4.431,1.248-6.958,1.248h-12.622V8.784h12.622c2.527,0,4.847.409,6.958,1.225,2.111.817,3.93,1.95,5.456,3.399,1.526,1.449,2.705,3.152,3.537,5.109.832,1.958,1.248,4.076,1.248,6.357v.092c0,2.281-.416,4.408-1.248,6.381ZM563.165,24.967c0-1.417-.239-2.728-.717-3.93-.478-1.202-1.141-2.234-1.988-3.098-.848-.863-1.873-1.533-3.075-2.011-1.202-.478-2.528-.717-3.976-.717h-5.502v19.511h5.502c1.449,0,2.774-.231,3.976-.694,1.202-.462,2.227-1.125,3.075-1.988.847-.862,1.51-1.88,1.988-3.051.478-1.171.717-2.481.717-3.93v-.093Z" fill="#fc776a" stroke-width="0"/>
        <path d="M608.267,33.475c-.663,1.819-1.611,3.337-2.844,4.554-1.233,1.218-2.728,2.127-4.485,2.728-1.757.601-3.715.902-5.872.902-4.346,0-7.768-1.202-10.264-3.607-2.497-2.404-3.745-5.994-3.745-10.773V8.784h7.12v18.309c0,2.651.616,4.647,1.85,5.987,1.232,1.341,2.943,2.012,5.132,2.012s3.899-.647,5.132-1.942c1.232-1.295,1.85-3.237,1.85-5.826V8.784h7.12v18.263c0,2.466-.331,4.609-.994,6.427ZM586.837,3.121h0c0-1.724,1.397-3.121,3.121-3.121h.509c1.724,0,3.121,1.397,3.121,3.121h0c0,1.724-1.397,3.121-3.121,3.121h-.509c-1.724,0-3.121-1.397-3.121-3.121ZM596.731,3.121h0c0-1.724,1.397-3.121,3.121-3.121h.509c1.724,0,3.121,1.397,3.121,3.121h0c0,1.724-1.397,3.121-3.121,3.121h-.509c-1.724,0-3.121-1.397-3.121-3.121Z" fill="#fc776a" stroke-width="0"/>
        <path d="M643.666,35.855c-.583,1.249-1.393,2.297-2.435,3.144-1.042.848-2.284,1.495-3.728,1.942-1.444.446-3.044.67-4.801.67-2.466,0-4.886-.424-7.259-1.271-2.374-.848-4.531-2.15-6.473-3.907l4.207-5.04c1.48,1.202,2.997,2.158,4.555,2.867,1.556.709,3.259,1.063,5.109,1.063,1.479,0,2.627-.27,3.444-.809.816-.539,1.225-1.287,1.225-2.243v-.092c0-.463-.086-.871-.255-1.225-.17-.354-.495-.686-.973-.994-.479-.308-1.144-.616-1.993-.925-.85-.308-1.955-.632-3.314-.971-1.639-.4-3.122-.848-4.451-1.341-1.329-.492-2.457-1.101-3.384-1.826-.928-.724-1.646-1.625-2.155-2.705-.51-1.078-.765-2.419-.765-4.022v-.092c0-1.48.275-2.812.826-4,.551-1.186,1.324-2.212,2.32-3.074.996-.863,2.184-1.526,3.566-1.988,1.381-.462,2.905-.694,4.569-.694,2.373,0,4.554.355,6.542,1.064,1.988.709,3.814,1.726,5.479,3.051l-3.699,5.363c-1.449-.986-2.866-1.765-4.253-2.335-1.387-.57-2.774-.856-4.162-.856s-2.427.27-3.121.809c-.693.54-1.04,1.21-1.04,2.011v.092c0,.524.1.979.301,1.364.201.386.564.733,1.09,1.04.525.309,1.244.601,2.155.879s2.063.601,3.454.971c1.638.432,3.098.917,4.381,1.456,1.282.54,2.364,1.187,3.245,1.942.881.756,1.545,1.642,1.993,2.659.448,1.017.673,2.235.673,3.653v.092c0,1.603-.291,3.029-.873,4.277Z" fill="#fc776a" stroke-width="0"/>
        <path d="M677.88,35.855c-.583,1.249-1.393,2.297-2.435,3.144-1.042.848-2.284,1.495-3.728,1.942-1.444.446-3.044.67-4.801.67-2.466,0-4.886-.424-7.259-1.271-2.374-.848-4.531-2.15-6.473-3.907l4.207-5.04c1.48,1.202,2.997,2.158,4.555,2.867,1.556.709,3.259,1.063,5.109,1.063,1.479,0,2.627-.27,3.444-.809.816-.539,1.225-1.287,1.225-2.243v-.092c0-.463-.086-.871-.255-1.225-.17-.354-.495-.686-.973-.994-.479-.308-1.144-.616-1.993-.925-.85-.308-1.955-.632-3.314-.971-1.639-.4-3.122-.848-4.451-1.341-1.329-.492-2.457-1.101-3.384-1.826-.928-.724-1.646-1.625-2.155-2.705-.51-1.078-.765-2.419-.765-4.022v-.092c0-1.48.275-2.812.826-4,.551-1.186,1.324-2.212,2.32-3.074.996-.863,2.184-1.526,3.566-1.988,1.381-.462,2.905-.694,4.569-.694,2.373,0,4.554.355,6.542,1.064,1.988.709,3.814,1.726,5.479,3.051l-3.699,5.363c-1.449-.986-2.866-1.765-4.253-2.335-1.387-.57-2.774-.856-4.162-.856s-2.427.27-3.121.809c-.693.54-1.04,1.21-1.04,2.011v.092c0,.524.1.979.301,1.364.201.386.564.733,1.09,1.04.525.309,1.244.601,2.155.879s2.063.601,3.454.971c1.638.432,3.098.917,4.381,1.456,1.282.54,2.364,1.187,3.245,1.942.881.756,1.545,1.642,1.993,2.659.448,1.017.673,2.235.673,3.653v.092c0,1.603-.291,3.029-.873,4.277Z" fill="#fc776a" stroke-width="0"/>
        <path d="M689.572,41.149V8.784h24.366v6.334h-17.338v6.566h15.258v6.334h-15.258v6.797h17.57v6.334h-24.597Z" fill="#fc776a" stroke-width="0"/>
        <path d="M725.173,41.149V8.784h7.12v25.938h16.136v6.427h-23.256Z" fill="#fc776a" stroke-width="0"/>
        <path d="M786.989,31.348c-.832,1.973-2.011,3.683-3.537,5.132-1.525,1.449-3.345,2.589-5.456,3.422-2.112.832-4.431,1.248-6.958,1.248h-12.622V8.784h12.622c2.527,0,4.847.409,6.958,1.225,2.111.817,3.93,1.95,5.456,3.399,1.526,1.449,2.705,3.152,3.537,5.109.832,1.958,1.248,4.076,1.248,6.357v.092c0,2.281-.416,4.408-1.248,6.381ZM780.794,24.967c0-1.417-.239-2.728-.717-3.93-.478-1.202-1.141-2.234-1.988-3.098-.848-.863-1.873-1.533-3.075-2.011-1.202-.478-2.528-.717-3.976-.717h-5.502v19.511h5.502c1.449,0,2.774-.231,3.976-.694,1.202-.462,2.227-1.125,3.075-1.988.847-.862,1.51-1.88,1.988-3.051.478-1.171.717-2.481.717-3.93v-.093Z" fill="#fc776a" stroke-width="0"/>
        <path d="M830.867,31.463c-.863,2.019-2.058,3.792-3.583,5.318-1.526,1.525-3.345,2.728-5.456,3.606-2.112.879-4.415,1.318-6.912,1.318s-4.794-.439-6.889-1.318c-2.096-.878-3.907-2.065-5.433-3.56-1.525-1.494-2.713-3.251-3.56-5.271-.848-2.018-1.271-4.185-1.271-6.496v-.093c0-2.311.431-4.477,1.295-6.496.862-2.018,2.058-3.792,3.583-5.317s3.344-2.728,5.456-3.607c2.111-.878,4.415-1.318,6.912-1.318s4.793.439,6.889,1.318c2.096.879,3.907,2.066,5.433,3.56,1.526,1.495,2.712,3.252,3.56,5.271.848,2.019,1.272,4.184,1.272,6.496v.092c0,2.312-.432,4.478-1.295,6.496ZM824.718,24.967c0-1.387-.239-2.697-.717-3.93-.478-1.233-1.156-2.312-2.035-3.237-.878-.925-1.918-1.657-3.121-2.196-1.202-.539-2.512-.809-3.93-.809-1.45,0-2.767.262-3.953.786-1.187.524-2.204,1.249-3.052,2.173-.848.925-1.51,1.996-1.988,3.213-.479,1.218-.717,2.52-.717,3.907v.092c0,1.387.238,2.698.717,3.93.478,1.233,1.156,2.312,2.034,3.237.879.925,1.911,1.657,3.098,2.196,1.186.54,2.504.809,3.953.809,1.417,0,2.728-.261,3.93-.786,1.202-.524,2.226-1.248,3.074-2.173.848-.925,1.51-1.995,1.988-3.214.478-1.217.717-2.52.717-3.907v-.093Z" fill="#fc776a" stroke-width="0"/>
        <path d="M862.769,41.149l-6.935-10.357h-5.594v10.357h-7.12V8.784h14.795c3.853,0,6.85.941,8.993,2.821,2.142,1.88,3.214,4.501,3.214,7.86v.093c0,2.62-.64,4.755-1.919,6.404-1.279,1.649-2.952,2.859-5.016,3.629l7.906,11.559h-8.323ZM862.907,19.835c0-1.541-.493-2.697-1.479-3.468-.987-.77-2.358-1.155-4.115-1.155h-7.074v9.293h7.213c1.757,0,3.105-.416,4.046-1.248.94-.832,1.41-1.942,1.41-3.329v-.092Z" fill="#fc776a" stroke-width="0"/>
        <path d="M888.291,15.212v6.981h15.442v6.427h-15.442v12.53h-7.12V8.784h24.643v6.427h-17.523Z" fill="#fc776a" stroke-width="0"/>
      </g>
      <g>
        <path d="M17.132,14.589c0-3.14-.809-3.712-3.046-4.949v-.381h10.376v.381c-2.237,1.237-2.999,1.809-2.999,4.949v17.942c0,6.663-4.664,10.517-10.946,10.517-6.139,0-10.517-3.664-10.517-8.376,0-2.856,1.999-4.711,4.473-4.711,1,0,1.809.286,2.333.761-1.38.904-2.38,2.19-2.38,4.616,0,3.427,2.474,5.854,6.091,5.854,4.711,0,6.614-3.521,6.614-8.9V14.589Z" fill="#fc776a" stroke-width="0"/>
        <path d="M35.763,9.64v-.381h10.374v.381c-2.237,1.237-3.046,1.809-3.046,4.949v22.653c0,3.141.809,3.712,3.046,4.95v.38h-10.374v-.38c2.237-1.238,2.999-1.809,2.999-4.95V14.589c0-3.14-.761-3.712-2.999-4.949Z" fill="#fc776a" stroke-width="0"/>
        <path d="M81.546,14.209c.429-.951.524-1.19.524-1.809,0-1-.953-1.619-3.046-2.76v-.381h8.946v.381c-2.093,1.474-2.76,2.189-4.092,5.044l-12.944,28.363h-.239l-12.944-28.363c-1.284-2.856-1.951-3.57-4.046-5.044v-.381h10.376v.381c-1.951.856-2.57,1.427-2.57,2.427,0,.619.237,1.094.619,2.046l9.756,21.892,9.66-21.796Z" fill="#fc776a" stroke-width="0"/>
        <path d="M95.923,42.572h-8.947v-.38c2.094-1.476,2.903-2.19,4.236-5.046l13.326-28.457h.237l13.326,28.457c1.38,2.856,1.95,3.57,4.044,5.046v.38h-10.374v-.38c1.999-.857,2.617-1.429,2.617-2.427,0-.619-.19-1.096-.666-2.047l-2.856-6.139h-14.657l-2.76,6.091c-.429.904-.571,1.427-.571,1.999,0,1,.951,1.523,3.046,2.523v.38ZM97.113,29.628h12.849l-6.472-13.944-6.377,13.944Z" fill="#fc776a" stroke-width="0"/>
        <path d="M159.545,9.259h8.233v.381c-2.236,1.237-2.997,1.809-2.997,4.949v22.653c0,3.141.761,3.712,2.997,4.95v.38h-10.326v-.38c2.236-1.238,2.997-1.809,2.997-4.95V12.305l-13.182,30.79h-.191l-13.324-30.79v24.89c0,3.14,1.284,3.759,3.569,4.997v.38h-9.423v-.38c2.237-1.238,3.523-1.857,3.523-4.997V14.589c0-3.14-.761-3.712-2.999-4.949v-.381h8.899l11.279,26.032,10.946-26.032Z" fill="#fc776a" stroke-width="0"/>
        <path d="M201.63,9.64v-.381h9.47v.381c-2.236,1.237-3.473,1.856-3.473,4.997v15.18c0,8.709-5.521,13.23-13.087,13.23-9.423,0-13.802-5.187-13.802-13.23v-15.229c0-3.14-.809-3.712-3.046-4.949v-.381h10.422v.381c-2.236,1.237-3.046,1.809-3.046,4.949v14.657c0,7.52,3.666,11.28,9.757,11.28,6.233,0,10.422-3.331,10.422-11.231v-14.657c0-3.141-1.333-3.76-3.617-4.997Z" fill="#fc776a" stroke-width="0"/>
        <path d="M220.584,42.572v-.38c2.237-1.238,2.999-1.809,2.999-4.95V14.589c0-3.14-.761-3.712-2.999-4.949v-.381h10.374v.381c-2.237,1.237-3.046,1.809-3.046,4.949v12.326l14.514-13.516c.667-.666.951-1.189.951-1.76,0-.761-.856-1.286-2.046-1.999v-.381h9.851v.381c-3.141,1.474-5.044,2.854-7.281,4.949l-9.137,8.471,11.993,14.182c2.046,2.38,3.902,4.046,5.949,4.95v.38h-10.566v-.38c.81-.477,1.476-.857,1.476-1.571,0-.666-.333-1.094-1.143-2.141l-10.802-12.659-3.76,3.379v8.043c0,3.141.809,3.712,3.046,4.95v.38h-10.374Z" fill="#fc776a" stroke-width="0"/>
        <path d="M284.388,9.259c1.427,0,2.141-.143,2.856-.286l1.57,8.947h-.429c-2.76-4.14-4.33-6.9-8.756-6.9h-4.711v26.174c0,3.14.856,3.759,3.474,4.997v.38h-11.232v-.38c2.617-1.238,3.426-1.857,3.426-4.997V11.02h-4.663c-4.474,0-6.044,2.76-8.804,6.9h-.429l1.57-8.947c.714.143,1.429.286,2.856.286h23.272Z" fill="#fc776a" stroke-width="0"/>
        <path d="M298.535,9.64v-.381h10.374v.381c-2.237,1.237-3.046,1.809-3.046,4.949v22.653c0,3.141.809,3.712,3.046,4.95v.38h-10.374v-.38c2.236-1.238,2.997-1.809,2.997-4.95V14.589c0-3.14-.761-3.712-2.997-4.949Z" fill="#fc776a" stroke-width="0"/>
        <path d="M360.539,13.971c.524-.761.666-1.476.666-1.856,0-.904-.904-1.523-2.427-2.474v-.381h8.377v.381c-1.904,1.427-2.856,2.474-4.427,4.949l-8.946,14.087v8.566c0,3.141.809,3.712,3.426,4.95v.38h-11.136v-.38c2.617-1.238,3.427-1.809,3.427-4.95v-8.566l-8.947-14.087c-1.571-2.474-2.474-3.521-4.426-4.949v-.381h9.709v.381c-1.238.761-1.571,1.332-1.571,2.189,0,.714.19,1.38.714,2.141l7.804,12.373,7.757-12.373Z" fill="#fc776a" stroke-width="0"/>
        <path d="M391.239,8.783c9.519,0,16.514,7.139,16.514,17.133s-6.996,17.132-16.514,17.132-16.513-7.139-16.513-17.132,6.996-17.133,16.513-17.133ZM391.239,10.925c-7.233,0-11.612,5.997-11.612,14.991s4.379,14.99,11.612,14.99,11.612-5.996,11.612-14.99-4.377-14.991-11.612-14.991Z" fill="#fc776a" stroke-width="0"/>
        <path d="M443.306,32.008c0-3.141-.809-3.664-3.046-4.95v-.38h10.423v.38c-2.284,1.286-3.093,1.809-3.093,4.95v10.993h-1.096l-2.522-4.759c-1.856,2.807-5.663,4.806-10.327,4.806-9.613,0-16.656-6.9-16.656-16.942,0-10.137,7.329-17.323,17.37-17.323,3.854,0,6.853,1.19,8.804,2.617l2.569-2.617h.334v9.946h-.381c-2.713-4.473-5.853-7.899-11.089-7.899-7.519,0-12.659,6.139-12.659,15.133,0,8.852,5.187,14.563,12.85,14.563,3.473,0,6.424-1.19,8.517-4.046v-4.473Z" fill="#fc776a" stroke-width="0"/>
        <path d="M465.916,42.572h-8.946v-.38c2.093-1.476,2.903-2.19,4.234-5.046l13.326-28.457h.237l13.326,28.457c1.38,2.856,1.951,3.57,4.044,5.046v.38h-10.374v-.38c1.999-.857,2.618-1.429,2.618-2.427,0-.619-.191-1.096-.667-2.047l-2.856-6.139h-14.657l-2.76,6.091c-.429.904-.571,1.427-.571,1.999,0,1,.951,1.523,3.046,2.523v.38ZM467.106,29.628h12.849l-6.472-13.944-6.377,13.944Z" fill="#fc776a" stroke-width="0"/>
        <path d="M507.547,14.727c0,3.701-3.01,6.727-6.744,6.727-3.702,0-6.744-3.026-6.744-6.727,0-3.735,3.042-6.728,6.744-6.728,3.734,0,6.744,2.993,6.744,6.728ZM506.984,14.727c0-3.333-2.833-6.198-6.181-6.198s-6.165,2.865-6.165,6.198c0,3.316,2.832,6.196,6.165,6.196s6.181-2.881,6.181-6.196ZM497.761,10.879l2.381-.096c1.626-.064,2.929.321,2.929,1.802,0,1.465-.9,1.899-2.043,2.012.772.066,1.674.74,1.802,2.013.161,1.641.661,1.625,1.642,1.625l-.097.305c-1.996.515-2.672-.305-2.896-1.191-.194-.805.224-2.397-1.256-2.687-.21-.048-.435,0-.435,0v3.267c0,.16,0,.225.064.225l.596.08v.305h-2.688v-.305l.562-.08c.097,0,.097-.066.097-.225v-6.439c0-.177,0-.225-.097-.225l-.562-.097v-.29ZM499.789,14.292h.225c1.384,0,1.689-.82,1.689-1.642,0-1.561-1.271-1.738-1.915-1.545v3.187Z" fill="#fc776a" stroke-width="0"/>
      </g>
    </g>
  </g>
</svg>