<?xml version="1.0" encoding="UTF-8"?>
<svg id="b" data-name="Layer 2" xmlns="http://www.w3.org/2000/svg" width="431.314" height="504.519" viewBox="0 0 431.314 504.519">
  <g id="c" data-name="Art">
    <g id="d" data-name="Vertical Logo - Grey - Light">
      <g>
        <g>
          <path d="M294.307,181.347c-8.826-1.962-20.591-2.327-31.385.392-23.977,6.05-31.125,23.953-31.125,23.953.33,2.951,2.465,1.782,6.95.803,4.491-.979,17.35,4.867,17.35,4.867,0,0,18.723,5.074,32.951-8.183,14.225-13.259,22.812-14.96,22.812-14.96,0,0-6.77-4.468-17.554-6.871ZM267.018,208.256c-6.326,0-11.462-5.122-11.462-11.458,0-4.521,2.616-8.411,6.405-10.279,2.498-.369,4.775-.725,6.902-1.025,5.458.882,9.628,5.591,9.628,11.304,0,6.336-5.136,11.458-11.473,11.458ZM246.742,204.931c-6.232-2.344-11.552-.027-11.552-.027,0,0,5.32-11.959,22.866-17.521-2.48,2.371-4.032,5.709-4.032,9.415,0,5.517,3.433,10.218,8.277,12.108-5.995-.308-10.865-2.214-15.559-3.975ZM281.782,203.367c-2.341,1.512-4.448,2.61-6.429,3.425,2.865-2.385,4.685-5.975,4.685-9.994,0-5.211-3.059-9.694-7.484-11.775,2.284-.251,4.431-.393,6.553-.358,14.708.255,22.321,4.341,22.321,4.341-1.517.1-5.931,2.96-10.728,6.616-2.218,1.686-6.293,6.067-8.918,7.745Z" fill="#323335" stroke-width="0"/>
          <path d="M272.517,196.79c0,3.022-2.459,5.481-5.481,5.481s-5.483-2.459-5.483-5.481,2.456-5.481,5.483-5.481,5.481,2.454,5.481,5.481" fill="#323335" stroke-width="0"/>
          <path d="M144.868,180.572c-10.79-2.724-22.559-2.36-31.386-.392-10.782,2.404-17.554,6.871-17.554,6.871,0,0,8.59,1.699,22.818,14.958,14.226,13.259,32.949,8.185,32.949,8.185,0,0,12.861-5.848,17.348-4.869,4.487.975,6.627,2.148,6.956-.804,0,0-7.154-17.899-31.131-23.949ZM140.773,207.086c-6.341,0-11.477-5.126-11.477-11.456,0-5.714,4.172-10.424,9.635-11.305,2.125.3,4.4.655,6.894,1.024,3.791,1.867,6.408,5.758,6.408,10.281,0,6.33-5.136,11.456-11.46,11.456ZM117.091,194.449c-4.798-3.655-9.21-6.514-10.728-6.616,0,0,7.61-4.08,22.323-4.341,2.122-.033,4.269.11,6.553.362-4.425,2.08-7.484,6.564-7.484,11.777,0,4.019,1.821,7.609,4.687,9.993-1.982-.816-4.09-1.914-6.432-3.426-2.623-1.678-6.697-6.057-8.918-7.749ZM161.045,203.762c-4.693,1.758-9.566,3.668-15.565,3.976,4.85-1.886,8.289-6.588,8.289-12.108,0-3.708-1.553-7.045-4.034-9.416,17.546,5.561,22.864,17.521,22.864,17.521,0,0-5.318-2.314-11.554.027Z" fill="#323335" stroke-width="0"/>
          <path d="M135.274,195.622c0,3.022,2.459,5.481,5.483,5.481s5.481-2.459,5.481-5.481-2.457-5.483-5.481-5.483-5.483,2.456-5.483,5.483" fill="#323335" stroke-width="0"/>
          <g>
            <path d="M286.293,144.407s18.442-14.726,6.453-49.808c-10.819-29.53-31.287-36.261-38.302-54.095-6.886-17.494-12.687-37.643-49.408-35.947,4.992,2.841,10.663,5.339,14.032,5.339,5.752,0,9.674,1.046,12.488,4.154,2.834,3.129,2.888,8.693,3.599,12.235.628,3.132,1.799,5.758,1.799,5.758,0,0,2.159,5.038,4.147,9.937,3.84,9.463-1.64,13.147-1.64,13.147,3.678-5.151-1.334-17.011-3.746-20.335-2.412-3.32-3.02-5.129-4.681-12.375-1.659-7.244-6.996-8.625-6.996-8.625-1.597-.436-7.676-.761-8.854-1.181C193.951,5.053,195.755.318,185.945.015c-5.045-.157-9.268.939-12.19,2.041-1.151.63-2.109,1.269-2.894,1.889-.014.02-.028.038-.042.059l-.034.003c-1.21.966-2.022,1.879-2.55,2.613-.918,1.277-2.11,2.325-3.418,3.199-6.074,4.058-20.638,16.536-13.004,39.167,0,0,4.679,21.345,40.936,38.594,4.047,1.926,7.806,3.711,11.318,5.398-3.489,5.271-8.53,14.77-9.908,27.204-.672,6.035-.116,11.741,1.093,16.955-3.392-2.284-6.944-4.974-10.653-8.129-37.209-31.634-58.81-27.389-66.413-26.811-7.601.589-43.088,10.534-38.904,42.605,4.502,34.517,42.613,28.851,54.033,29.819,10.108.857,33.044,1.636,60.018,17.051,11.694,5.262,24.009,3.387,34.502-1.169,2.4-1.042,38.598-23.098,65.207-13.451,26.604,9.651,32.162,29.824,23.098,49.122-9.068,19.299-50.05,29.197-83.527,14.702-40.038-17.336-57.651,2.956-62.328,11.145-4.679,8.188-1.704,15.677,2.775,15.677,0,0,2.924.198,4.095-3.703,1.171-3.901,2.532-12.097,18.321-15.407,15.787-3.308,30.407,4.688,38.008,7.219,7.605,2.53,25.738,8.974,49.322,5.852,23.58-3.128,60.421-21.447,65.1-65.893.394-46.196-55.195-51.653-61.613-51.359ZM288.3,137.65c-5.591,8.467-15.242,7.113-15.242,7.113-7.789-1.78-4.32-11.515.338-11.602,4.658-.088,15.248-4.153,17.617-7.873.781-1.234,2.878,3.894-2.713,12.362ZM291.518,120.372c-4.32,7.877-18.715,9.146-18.715,9.146-4.064-.083-7.609-9.037-.748-12.604,9.743-.852,18.192-7.213,19.123-8.056.933-.849,4.658,3.638.34,11.514ZM285.302,92.165c1.569-2.244,5.367,1.607,6.387,6.081,1.014,4.464-.931,8.86-7.877,12.249-6.944,3.385-11.602,2.45-11.602,2.45,0,0-5.842-.075-7.872-2.74-2.408-3.154-2.799-6.339,4.318-7.996,7.113-1.661,15.074-7.801,16.646-10.043ZM282.946,83.477c.879,2.548,1.638,7.512-7.073,12.216-5.729,3.093-10.333,4.37-14.234,4.713-8.634.897-15.196-7.718-8.48-8.267,6.72-.559,17.275-7.948,20.641-12.287,3.364-4.35,8.269,1.073,9.146,3.625ZM271.673,77.441c-1.565,2.354-4.011,4.481-6.436,6.18-5.07,3.554-11.544,5.18-15.499,6.098-2.356.545-6.22.628-8.666-1.115-3.629-2.588-4.973-7.628-.374-8.436,0,0,13.177-1.503,24.707-13.228,1.516-1.542,11.095,3.218,6.268,10.502ZM229.018,120.183c-.704-6.347-2.365-11.925-4.285-16.572,13.013,7.627,18.597,14.249,18.597,25.201,0,9.774-6.686,18.534-19.04,18.908,3.273-7.618,5.889-17.057,4.728-27.537ZM248.672,54.389c1.516-1.542,17.054,5.392,12.228,12.676-1.565,2.354-6.275,4.88-10.109,6.623-5.637,2.562-11.149,4.538-16.733,4.532-2.418-.003-7.273-.424-9.718-2.167-3.629-2.588-4.972-7.628-.374-8.436,0,0,13.177-1.503,24.707-13.228ZM205.084,55.531c2.383-2.183,7.872-2.438,7.872-2.438,0,0,2.782,1.046,4.464,1.851,3.782,1.805,9.651,6.931,11.093,7.524-1.797.361-10.429,2.649-16.87,1.876-3.638-.44-6.295-2.859-7.311-4.686-1.079-1.749-.29-3.176.753-4.126ZM196.526,51.424c-6.418-1.774-5.527-7.489-5.527-7.489.572-2.605,9.907-1.463,9.907-1.463,3.302,6.923,7.24,8.004,7.24,8.004,0,0-5.207,2.732-11.619.948ZM213.351,34.996s3.679-.184,3.127,4.967c0,0-3.311-.92-3.863-2.207s.736-2.759.736-2.759ZM206.519,36.041c2.092,7.582,9.935,9.064,9.935,9.064,6.275,1.569,7.582,6.1,11.504,10.022,3.922,3.922,9.761,1.83,9.761,1.83,0,0-4.27,2.614-8.453,1.046-4.183-1.569-7.321-7.321-11.504-8.889-4.183-1.569-10.842-4.412-11.765-8.105-2.614-10.458-10.458-20.916-10.458-20.916,2.876,1.83,8.889,8.366,10.981,15.948ZM198.239,34.6c.632,2.344,1.142,3.558,1.142,3.558,0,0-8.891,1.713-11.114-2.354-2.223-4.064-.572-5.779-.061-6.353,2.285-1.903,6.22-.887,6.985-.76,0,0,2.411,3.559,3.049,5.909ZM192.967,24.943s-10.202-.655-9.166-8.11c0,0,6.877,3.919,9.166,8.11ZM191.392,84.149c-37.628-19.694-42.109-46.392-32.554-62.571,4.431-7.507,9.716-11.421,14.738-11.421,8.384,0,12.549,3.66,12.549,3.66,0,0-5.111-1.407-9.93-1.54-7.073-.198-16.651,5.89-18.306,20.625-2.614,23.269,13.498,36.636,25.36,44.185,8.628,5.49,19.976,12.178,31.897,17.778l-7.321-2.876c-5.203-2.455-9.957-4.451-16.434-7.841ZM201.644,114.667c1.907-7.768,5.009-12.867,7.077-15.618,1.267-1.682,2.878-3.571,2.878-3.571,0,0,1.499,1.805,2.667,3.335,2.075,2.692,5.293,7.875,7.261,15.855.49,1.99.913,3.99,1.23,6.037-2.339-3.709-6.461-6.177-11.17-6.177s-8.836,2.465-11.177,6.172c.318-2.046.742-4.045,1.234-6.032ZM211.587,116.126c6.43,0,11.654,5.218,11.654,11.64s-5.224,11.66-11.654,11.66-11.665-5.22-11.665-11.66,5.218-11.64,11.665-11.64ZM222.934,134.476c-.857,6.387-3.108,13.674-7.575,22.584-.92,1.835-3.761,6.827-3.761,6.827,0,0-2.895-5.036-3.826-6.891-4.443-8.875-6.686-16.144-7.541-22.518,2.305,3.87,6.52,6.472,11.356,6.472s9.044-2.603,11.347-6.475ZM330.171,224.229c-6.823,15.787-23.974,28.656-47.949,32.75-23.978,4.089-54.001-10.143-54.001-10.143,0,0-21.635-11.304-39.972-2.548-18.341,8.751-15.9,18.878-15.9,18.878l-.359.567c-4.097-9.941,11.789-24.884,29.139-26.053,17.352-1.173,20.86,6.23,48.408,12.086,27.549,5.856,47.547.661,65.216-15.494,14.447-13.209,8.796-35.579,8.072-40.571-.72-4.99,2.861-1.446,3.901-5.483,1.041-4.041-18.777-28.126-50.163-28.514-31.385-.395-42.099,9.352-47.364,14.428-5.262,5.068-3.316,11.694-3.316,11.694,0,0-10.333,4.093-18.131,4.093s-15.006-3.901-15.006-3.901c7.799-7.411,3.12-17.342-5.068-19.491-8.185-2.15-22.146-3.195-50.666-4.74-8.768-.48-29.726-2.928-39.256-14.893-4.903-5.961-9.064-17.081-3.913-24.905,16.035-24.355,50.95-13.361,57.967-10.433,7.017,2.924,13.075,5.584,32.387,21.218,8.57,6.937,12.879,12.558,14.649,15.214.203.475.408.941.616,1.401-13.888-9.11-46.997-19.897-60.126-19.897-13.261,0-22.225,5.065-22.225,5.065,18.713-.789,43.472,4.675,66.862,16.571,7.841,3.988,14.68,6.506,20.59,7.965.858,1.456,1.637,2.729,2.266,3.792,1.081,10.511-2.404,10.416-4.67,10.59-2.883.222-5.104-5.327-.22-5.873,0,0-2.589-1.288-4.399,1.254-1.809,2.527.612,7.324,5.403,7.233,4.619-.087,8.592-4.323,8.592-11.922h.096c0,7.599,3.641,12.162,8.916,12.096,4.805-.06,6.681-4.881,4.88-7.408-1.81-2.542-4.201-1.254-4.201-1.254,4.894.545,2.986,5.786.018,5.786-2.614,0-5.993.009-4.908-10.503.344-.641.746-1.355,1.188-2.13,5.009-.054,8.872-1.055,11.673-2.413,7.315-3.55,66.414-23.079,95.462,1.672,29.048,24.753,19.528,49.076,19.528,49.076,0,0-7.192-.651-14.019,15.138Z" fill="#323335" stroke-width="0"/>
            <path d="M211.569,133.037c3.026,0,5.481-2.459,5.481-5.481s-2.456-5.481-5.481-5.481-5.479,2.459-5.479,5.481,2.455,5.481,5.479,5.481Z" fill="#323335" stroke-width="0"/>
          </g>
        </g>
        <g>
          <g>
            <path d="M123.286,464.974v3.341h-7.13v26.78h-.989l-2.73-2.976v-14.885h-7.389c2.102,2.15,3.153,4.118,3.153,5.907,0,1.648-.545,3.017-1.636,4.106-1.09,1.091-2.474,1.636-4.153,1.636-2.071,0-4.099-1.212-6.083-3.633-1.985-2.421-3.738-5.764-5.259-10.028l.942-.576c3.2,7.185,6.377,10.777,9.53,10.777.942,0,1.71-.285,2.306-.858.596-.572.895-1.33.895-2.271,0-.707-.263-1.55-.788-2.53-.526-.98-2.271-2.93-5.236-5.848h13.72v-5.601h-22.969v-3.341h33.817Z" fill="#323335" stroke-width="0"/>
            <path d="M138.677,464.974v3.341h-7.13v26.78h-.918l-2.778-3.141v-23.639h-5.248v-3.341h7.772c-3.217-6.762-6.976-10.143-11.276-10.143-1.663,0-2.86.399-3.59,1.2-.73.8-.923,1.701-1.095,2.659-.534,2.984,1.736,5.732,2.033,6.5h-3.153c-.329-.894-2.802-1.763-2.344-7.227.159-1.892.915-3.641,2.216-4.85,1.303-1.208,3.037-1.812,5.203-1.812,2.793,0,5.222.997,7.285,2.989,2.063,1.992,4.029,5.553,5.897,10.684h7.124Z" fill="#323335" stroke-width="0"/>
            <path d="M167.199,464.974v3.341h-7.154v26.71h-.988l-2.707-3.024v-7.801c-2.699,1.851-5.075,2.777-7.131,2.777-1.883,0-3.762-.937-5.636-2.812-1.875-1.874-2.812-3.651-2.812-5.331,0-1.85,1.02-3.341,3.059-4.471,2.039-1.129,4.118-1.694,6.236-1.694,2.086,0,4.181,1.051,6.284,3.153v-7.507h-18.356v-3.341h29.205ZM156.35,478.598v-1.176c-1.365-.989-2.714-1.482-4.048-1.482-1.851,0-3.805.506-5.86,1.518-2.056,1.012-3.083,2.153-3.083,3.424,0,1.004.345,1.84,1.035,2.506.69.667,1.499,1,2.424,1,1.067,0,2.886-.757,5.459-2.271s3.931-2.686,4.072-3.519Z" fill="#323335" stroke-width="0"/>
            <path d="M202.758,464.974v3.341h-12.238v26.78h-1.059l-2.636-3.094v-9.471h-9.672v4c0,.942-.306,1.412-.918,1.412-.596,0-1.958-1.142-4.083-3.424-2.126-2.283-3.189-3.809-3.189-4.578,0-.486.369-.729,1.106-.729h3.389v-10.896h-6.967v-3.341h36.266ZM177.153,479.211h9.672v-10.896h-9.672v10.896Z" fill="#323335" stroke-width="0"/>
            <path d="M186.955,495.38l-.125-3.405c.502-.094,1.215-.141,2.141-.141,2.118,0,3.879.604,5.283,1.813,1.404,1.208,2.106,2.784,2.106,4.73,0,1.914-.676,3.416-2.025,4.507-1.35,1.091-3.131,1.636-5.344,1.636-2.339,0-4.693-.816-7.063-2.448-2.37-1.631-4.513-3.969-6.427-7.013h1.482c3.093,4.471,7.181,6.707,12.266,6.707,3.876,0,5.815-1.106,5.815-3.318,0-.895-.534-1.668-1.6-2.318-1.066-.652-2.359-.977-3.88-.977-.815,0-2.163.149-2.633.228Z" fill="#323335" stroke-width="0"/>
            <path d="M255.694,464.974v3.341h-48.283v26.71h-1.059l-2.636-3.024v-23.686h-5.248v-3.341h5.672c-.942-1.883-1.772-4.192-1.772-5.84,0-5.695,4.623-8.323,12.892-8.204,7.589.11,12.593,3.673,15.822,7.227,2.228,2.452,4.297,4.493,5.665,7.032h-1.563c-3.125-3.711-8.009-10.548-19.251-11.417-6.494-.502-10.049,1.455-9.77,6.706.073,1.379.416,2.879,1.248,4.495h48.283Z" fill="#323335" stroke-width="0"/>
            <path d="M300.44,465.169v3.341h-7.155v26.78h-.493l-3.201-3.212v-7.496c-2.871,1.883-5.436,2.824-7.694,2.824s-4.221-.874-5.884-2.624c-1.664-1.748-2.495-3.792-2.495-6.13,3.907,0,5.86-1.819,5.86-5.459,0-1.114-.415-2.675-1.246-4.683h-6.59v-3.341h28.899ZM289.591,468.51h-9.108c.862,2.464,1.294,4.574,1.294,6.331,0,2.024-.557,3.683-1.671,4.977-1.114,1.294-2.635,2.02-4.565,2.177,1.005,2.259,2.612,3.388,4.825,3.388,2.258,0,5.334-1.866,9.225-5.6v-11.273Z" fill="#323335" stroke-width="0"/>
            <path d="M315.807,465.169v3.341h-7.132v26.78h-.87l-2.825-3.283v-23.498h-5.248v-3.341h6.525l-3.6-4.683c-1.584-2.055-3.074-3.377-4.472-3.965-1.398-.589-3.462-.882-6.193-.882h-3.201l-1.507-4.001h2.542c2.811,0,5.079.329,6.805.989,1.726.659,3.931,2.816,6.613,6.471l4.495,6.072h8.067Z" fill="#323335" stroke-width="0"/>
            <path d="M241.718,464.974h8.067v3.341h-7.132v26.78h-.87l-2.825-3.283v-23.498h-5.248v-3.341h6.525" fill="#323335" stroke-width="0"/>
            <path d="M344.375,465.169v3.341h-7.132v26.71h-1.106l-2.588-3.071v-23.639h-7.836c.659,7.86.989,12.316.989,13.367,0,3.216-.676,4.825-2.024,4.825-.455,0-.952-.239-1.494-.718-.542-.478-1.659-1.831-3.354-4.059-1.694-2.227-2.54-3.663-2.54-4.306,0-.706.455-1.059,1.365-1.059.265,0,.674.032,1.223.094.549.062.996.094,1.339.094,1.192,0,1.79-.447,1.79-1.341v-6.896h-7.883v-3.341h29.252Z" fill="#323335" stroke-width="0"/>
            <polygon points="239.872 474.37 217.408 474.37 219.166 477.886 239.676 477.886 239.872 474.37" fill="#323335" stroke-width="0"/>
            <path d="M230.105,477.691s-6.055,2.344-4.297,6.641c1.758,4.297,8.009,10.939,8.009,10.939l-1.563.391s-8.595-7.813-9.181-13.087c-.586-5.274,4.102-5.665,4.102-5.665l2.93.781Z" fill="#323335" stroke-width="0"/>
            <path d="M242.411,476.519s4.883-2.539,8.009.781c4.926,5.234,1.563,14.455,1.563,14.455l-3.321-2.735s3.808-6.203,1.758-8.985c-2.735-3.711-6.446-2.149-8.204.781-1.758,2.93.195-4.297.195-4.297Z" fill="#323335" stroke-width="0"/>
          </g>
          <g>
            <path d="M21.737,334.138c0-2.593-.668-3.065-2.515-4.087v-.315h8.568v.315c-1.847,1.022-2.476,1.494-2.476,4.087v14.816c0,5.502-3.852,8.685-9.039,8.685-5.069,0-8.685-3.026-8.685-6.917,0-2.358,1.65-3.891,3.694-3.891.826,0,1.494.236,1.926.629-1.14.747-1.965,1.808-1.965,3.812,0,2.83,2.043,4.835,5.03,4.835,3.891,0,5.462-2.908,5.462-7.35v-14.619Z" fill="#323335" stroke-width="0"/>
            <path d="M37.122,330.051v-.315h8.567v.315c-1.847,1.022-2.515,1.494-2.515,4.087v18.707c0,2.594.668,3.065,2.515,4.088v.314h-8.567v-.314c1.847-1.023,2.476-1.494,2.476-4.088v-18.707c0-2.593-.629-3.065-2.476-4.087Z" fill="#323335" stroke-width="0"/>
            <path d="M74.931,333.824c.354-.786.433-.983.433-1.494,0-.826-.787-1.337-2.515-2.279v-.315h7.388v.315c-1.728,1.218-2.279,1.807-3.379,4.166l-10.69,23.423h-.197l-10.69-23.423c-1.061-2.358-1.612-2.948-3.341-4.166v-.315h8.568v.315c-1.612.707-2.122,1.179-2.122,2.004,0,.511.196.904.511,1.689l8.057,18.078,7.978-17.999Z" fill="#323335" stroke-width="0"/>
            <path d="M86.803,357.247h-7.389v-.314c1.729-1.219,2.397-1.808,3.498-4.167l11.005-23.501h.196l11.005,23.501c1.14,2.358,1.61,2.948,3.34,4.167v.314h-8.567v-.314c1.65-.708,2.161-1.18,2.161-2.004,0-.511-.157-.905-.55-1.691l-2.358-5.069h-12.104l-2.279,5.03c-.354.747-.472,1.179-.472,1.65,0,.826.786,1.258,2.515,2.083v.314ZM87.786,346.557h10.611l-5.344-11.515-5.266,11.515Z" fill="#323335" stroke-width="0"/>
            <path d="M139.344,329.736h6.799v.315c-1.846,1.022-2.475,1.494-2.475,4.087v18.707c0,2.594.629,3.065,2.475,4.088v.314h-8.527v-.314c1.846-1.023,2.475-1.494,2.475-4.088v-20.594l-10.886,25.427h-.158l-11.004-25.427v20.555c0,2.593,1.061,3.104,2.947,4.127v.314h-7.782v-.314c1.847-1.023,2.909-1.534,2.909-4.127v-18.668c0-2.593-.629-3.065-2.476-4.087v-.315h7.349l9.314,21.497,9.039-21.497Z" fill="#323335" stroke-width="0"/>
            <path d="M174.098,330.051v-.315h7.821v.315c-1.846,1.022-2.868,1.533-2.868,4.127v12.536c0,7.192-4.56,10.926-10.808,10.926-7.782,0-11.398-4.284-11.398-10.926v-12.576c0-2.593-.668-3.065-2.515-4.087v-.315h8.606v.315c-1.846,1.022-2.515,1.494-2.515,4.087v12.104c0,6.21,3.027,9.315,8.058,9.315,5.147,0,8.606-2.751,8.606-9.275v-12.104c0-2.594-1.101-3.105-2.987-4.127Z" fill="#323335" stroke-width="0"/>
            <path d="M189.751,357.247v-.314c1.847-1.023,2.476-1.494,2.476-4.088v-18.707c0-2.593-.629-3.065-2.476-4.087v-.315h8.567v.315c-1.847,1.022-2.515,1.494-2.515,4.087v10.179l11.986-11.162c.551-.55.786-.982.786-1.454,0-.629-.707-1.062-1.689-1.65v-.315h8.136v.315c-2.594,1.218-4.166,2.357-6.013,4.087l-7.546,6.996,9.904,11.711c1.689,1.965,3.222,3.341,4.912,4.088v.314h-8.725v-.314c.669-.394,1.219-.708,1.219-1.298,0-.55-.275-.904-.944-1.768l-8.92-10.454-3.105,2.79v6.642c0,2.594.668,3.065,2.515,4.088v.314h-8.567Z" fill="#323335" stroke-width="0"/>
            <path d="M242.441,329.736c1.179,0,1.768-.118,2.358-.236l1.297,7.389h-.354c-2.279-3.419-3.576-5.698-7.231-5.698h-3.891v21.615c0,2.593.707,3.104,2.869,4.127v.314h-9.275v-.314c2.161-1.023,2.829-1.534,2.829-4.127v-21.615h-3.851c-3.695,0-4.991,2.279-7.271,5.698h-.354l1.297-7.389c.59.118,1.18.236,2.358.236h19.218Z" fill="#323335" stroke-width="0"/>
            <path d="M254.124,330.051v-.315h8.567v.315c-1.847,1.022-2.515,1.494-2.515,4.087v18.707c0,2.594.668,3.065,2.515,4.088v.314h-8.567v-.314c1.846-1.023,2.475-1.494,2.475-4.088v-18.707c0-2.593-.629-3.065-2.475-4.087Z" fill="#323335" stroke-width="0"/>
            <path d="M305.328,333.627c.433-.629.55-1.219.55-1.533,0-.747-.747-1.258-2.004-2.043v-.315h6.918v.315c-1.573,1.179-2.358,2.043-3.656,4.087l-7.388,11.633v7.074c0,2.594.668,3.065,2.829,4.088v.314h-9.196v-.314c2.161-1.023,2.83-1.494,2.83-4.088v-7.074l-7.389-11.633c-1.298-2.043-2.043-2.908-3.655-4.087v-.315h8.018v.315c-1.023.629-1.298,1.1-1.298,1.807,0,.59.157,1.14.59,1.768l6.445,10.218,6.406-10.218Z" fill="#323335" stroke-width="0"/>
            <path d="M330.68,329.344c7.861,0,13.638,5.895,13.638,14.149s-5.777,14.148-13.638,14.148-13.637-5.895-13.637-14.148,5.777-14.149,13.637-14.149ZM330.68,331.112c-5.973,0-9.589,4.953-9.589,12.38s3.616,12.379,9.589,12.379,9.589-4.951,9.589-12.379-3.615-12.38-9.589-12.38Z" fill="#323335" stroke-width="0"/>
            <path d="M373.678,348.523c0-2.594-.668-3.026-2.515-4.088v-.314h8.607v.314c-1.886,1.062-2.554,1.494-2.554,4.088v9.078h-.905l-2.082-3.93c-1.533,2.318-4.677,3.969-8.528,3.969-7.939,0-13.755-5.698-13.755-13.991,0-8.371,6.052-14.306,14.345-14.306,3.183,0,5.659.983,7.271,2.161l2.121-2.161h.276v8.213h-.315c-2.24-3.694-4.833-6.523-9.157-6.523-6.209,0-10.454,5.069-10.454,12.497,0,7.31,4.284,12.026,10.612,12.026,2.868,0,5.305-.983,7.034-3.341v-3.694Z" fill="#323335" stroke-width="0"/>
            <path d="M392.35,357.247h-7.388v-.314c1.728-1.219,2.397-1.808,3.497-4.167l11.005-23.501h.196l11.005,23.501c1.14,2.358,1.612,2.948,3.34,4.167v.314h-8.567v-.314c1.65-.708,2.162-1.18,2.162-2.004,0-.511-.158-.905-.551-1.691l-2.358-5.069h-12.104l-2.279,5.03c-.354.747-.472,1.179-.472,1.65,0,.826.786,1.258,2.515,2.083v.314ZM393.333,346.557h10.611l-5.344-11.515-5.266,11.515Z" fill="#323335" stroke-width="0"/>
            <path d="M426.73,334.252c0,3.056-2.486,5.555-5.569,5.555-3.057,0-5.569-2.499-5.569-5.555,0-3.085,2.512-5.556,5.569-5.556,3.083,0,5.569,2.472,5.569,5.556ZM426.264,334.252c0-2.752-2.34-5.118-5.104-5.118s-5.091,2.366-5.091,5.118c0,2.738,2.339,5.117,5.091,5.117s5.104-2.379,5.104-5.117ZM418.648,331.074l1.967-.079c1.343-.053,2.419.265,2.419,1.488,0,1.21-.744,1.568-1.687,1.661.637.054,1.382.611,1.488,1.662.133,1.355.545,1.342,1.356,1.342l-.08.252c-1.648.425-2.207-.252-2.392-.984-.16-.665.185-1.979-1.037-2.219-.173-.04-.359,0-.359,0v2.698c0,.132,0,.186.053.186l.492.066v.252h-2.22v-.252l.464-.066c.08,0,.08-.054.08-.186v-5.317c0-.146,0-.186-.08-.186l-.464-.08v-.239ZM420.323,333.892h.186c1.143,0,1.395-.678,1.395-1.356,0-1.289-1.05-1.435-1.581-1.276v2.632Z" fill="#323335" stroke-width="0"/>
          </g>
          <g>
            <path d="M33.762,416.575c-.983,2.331-2.376,4.352-4.179,6.064-1.803,1.712-3.952,3.059-6.446,4.043-2.495.983-5.236,1.475-8.222,1.475H0v-38.242h14.914c2.986,0,5.727.483,8.222,1.447,2.494.966,4.643,2.304,6.446,4.016,1.803,1.712,3.196,3.724,4.179,6.037.983,2.313,1.475,4.817,1.475,7.512v.109c0,2.696-.492,5.209-1.475,7.54ZM26.442,409.036c0-1.674-.283-3.223-.847-4.643-.565-1.42-1.348-2.641-2.349-3.661-1.002-1.019-2.212-1.811-3.633-2.376s-2.987-.847-4.699-.847h-6.501v23.055h6.501c1.712,0,3.278-.273,4.699-.82,1.42-.546,2.63-1.329,3.633-2.349,1.001-1.019,1.784-2.221,2.349-3.606.564-1.384.847-2.931.847-4.644v-.109Z" fill="#323335" stroke-width="0"/>
            <path d="M79.734,419.088c-.783,2.149-1.903,3.942-3.359,5.381-1.457,1.439-3.224,2.513-5.299,3.223s-4.39,1.065-6.938,1.065c-5.136,0-9.178-1.42-12.128-4.261-2.95-2.841-4.425-7.083-4.425-12.729v-21.852h8.413v21.634c0,3.133.728,5.49,2.186,7.075,1.456,1.584,3.477,2.377,6.064,2.377s4.607-.765,6.064-2.295,2.186-3.824,2.186-6.884v-21.907h8.413v21.579c0,2.915-.392,5.445-1.175,7.594ZM54.413,383.222h0c0-2.036,1.651-3.687,3.687-3.687h.601c2.036,0,3.687,1.651,3.687,3.687h0c0,2.036-1.651,3.687-3.687,3.687h-.601c-2.036,0-3.687-1.651-3.687-3.687ZM66.104,383.222h0c0-2.036,1.651-3.687,3.687-3.687h.601c2.036,0,3.687,1.651,3.687,3.687h0c0,2.036-1.651,3.687-3.687,3.687h-.601c-2.036,0-3.687-1.651-3.687-3.687Z" fill="#323335" stroke-width="0"/>
            <path d="M121.562,421.901c-.688,1.475-1.646,2.714-2.877,3.715-1.231,1.002-2.699,1.767-4.404,2.295-1.706.527-3.597.792-5.673.792-2.915,0-5.773-.501-8.578-1.502-2.805-1.001-5.354-2.54-7.648-4.616l4.971-5.955c1.748,1.42,3.541,2.55,5.381,3.387,1.839.838,3.852,1.256,6.037,1.256,1.748,0,3.105-.318,4.07-.956.965-.637,1.448-1.52,1.448-2.649v-.109c0-.547-.101-1.029-.301-1.448-.201-.419-.585-.81-1.151-1.175-.566-.364-1.351-.728-2.355-1.093-1.005-.364-2.31-.746-3.916-1.147-1.936-.473-3.689-1.002-5.259-1.585-1.571-.582-2.903-1.301-3.998-2.158-1.096-.855-1.945-1.92-2.547-3.196-.603-1.275-.904-2.859-.904-4.753v-.109c0-1.748.325-3.323.976-4.726.651-1.402,1.565-2.613,2.741-3.633,1.176-1.02,2.58-1.803,4.213-2.349,1.632-.546,3.432-.82,5.399-.82,2.804,0,5.381.419,7.73,1.257,2.349.838,4.508,2.04,6.474,3.606l-4.371,6.337c-1.712-1.165-3.387-2.084-5.026-2.759-1.639-.674-3.278-1.011-4.917-1.011s-2.868.32-3.688.956c-.82.638-1.229,1.43-1.229,2.377v.109c0,.62.119,1.157.356,1.612.237.456.665.865,1.287,1.229.62.365,1.47.711,2.547,1.038,1.077.328,2.437.711,4.081,1.148,1.935.51,3.66,1.084,5.176,1.721,1.515.638,2.793,1.403,3.834,2.295,1.041.893,1.826,1.939,2.355,3.141.529,1.202.795,2.641.795,4.316v.109c0,1.894-.344,3.578-1.031,5.053Z" fill="#323335" stroke-width="0"/>
            <path d="M161.989,421.901c-.688,1.475-1.646,2.714-2.877,3.715-1.231,1.002-2.699,1.767-4.405,2.295-1.706.527-3.597.792-5.673.792-2.914,0-5.773-.501-8.577-1.502-2.805-1.001-5.354-2.54-7.649-4.616l4.971-5.955c1.748,1.42,3.542,2.55,5.381,3.387,1.839.838,3.852,1.256,6.037,1.256,1.748,0,3.104-.318,4.07-.956.964-.637,1.448-1.52,1.448-2.649v-.109c0-.547-.101-1.029-.301-1.448-.202-.419-.585-.81-1.151-1.175-.566-.364-1.352-.728-2.355-1.093-1.005-.364-2.31-.746-3.916-1.147-1.936-.473-3.689-1.002-5.26-1.585-1.571-.582-2.903-1.301-3.998-2.158-1.096-.855-1.944-1.92-2.547-3.196-.603-1.275-.904-2.859-.904-4.753v-.109c0-1.748.326-3.323.977-4.726.651-1.402,1.565-2.613,2.741-3.633,1.176-1.02,2.581-1.803,4.213-2.349,1.632-.546,3.432-.82,5.399-.82,2.804,0,5.381.419,7.731,1.257,2.349.838,4.507,2.04,6.474,3.606l-4.371,6.337c-1.712-1.165-3.387-2.084-5.026-2.759-1.639-.674-3.278-1.011-4.917-1.011s-2.868.32-3.687.956c-.82.638-1.23,1.43-1.23,2.377v.109c0,.62.119,1.157.356,1.612.237.456.666.865,1.288,1.229.62.365,1.47.711,2.547,1.038,1.078.328,2.437.711,4.081,1.148,1.935.51,3.661,1.084,5.177,1.721,1.515.638,2.793,1.403,3.834,2.295,1.04.893,1.826,1.939,2.355,3.141.529,1.202.795,2.641.795,4.316v.109c0,1.894-.344,3.578-1.031,5.053Z" fill="#323335" stroke-width="0"/>
            <path d="M175.804,428.157v-38.242h28.791v7.484h-20.487v7.757h18.029v7.485h-18.029v8.031h20.76v7.484h-29.063Z" fill="#323335" stroke-width="0"/>
            <path d="M217.87,428.157v-38.242h8.413v30.648h19.066v7.594h-27.479Z" fill="#323335" stroke-width="0"/>
            <path d="M290.912,416.575c-.983,2.331-2.376,4.352-4.179,6.064-1.803,1.712-3.952,3.059-6.446,4.043-2.495.983-5.236,1.475-8.222,1.475h-14.914v-38.242h14.914c2.986,0,5.727.483,8.222,1.447,2.494.966,4.643,2.304,6.446,4.016,1.803,1.712,3.196,3.724,4.179,6.037.983,2.313,1.475,4.817,1.475,7.512v.109c0,2.696-.492,5.209-1.475,7.54ZM283.591,409.036c0-1.674-.283-3.223-.847-4.643-.565-1.42-1.348-2.641-2.349-3.661-1.002-1.019-2.212-1.811-3.633-2.376s-2.987-.847-4.699-.847h-6.501v23.055h6.501c1.712,0,3.278-.273,4.699-.82,1.42-.546,2.63-1.329,3.633-2.349,1.001-1.019,1.784-2.221,2.349-3.606.564-1.384.847-2.931.847-4.644v-.109Z" fill="#323335" stroke-width="0"/>
            <path d="M342.757,416.712c-1.02,2.385-2.431,4.48-4.234,6.283-1.803,1.802-3.952,3.223-6.446,4.261-2.495,1.038-5.218,1.557-8.168,1.557s-5.664-.519-8.14-1.557c-2.477-1.038-4.617-2.439-6.419-4.206-1.803-1.766-3.206-3.842-4.207-6.228-1.002-2.385-1.502-4.944-1.502-7.676v-.109c0-2.731.509-5.29,1.53-7.675,1.02-2.385,2.431-4.48,4.234-6.283,1.802-1.803,3.951-3.224,6.446-4.261,2.494-1.038,5.217-1.557,8.167-1.557s5.663.519,8.14,1.557c2.476,1.038,4.616,2.441,6.419,4.207,1.803,1.767,3.205,3.843,4.206,6.228,1.002,2.386,1.502,4.945,1.502,7.676v.109c0,2.732-.51,5.291-1.53,7.676ZM335.491,409.036c0-1.639-.283-3.186-.847-4.643-.565-1.456-1.366-2.732-2.404-3.824s-2.267-1.957-3.687-2.595c-1.42-.637-2.969-.956-4.644-.956-1.712,0-3.269.31-4.671.929-1.403.62-2.604,1.475-3.606,2.568-1.002,1.093-1.785,2.359-2.349,3.797-.565,1.439-.847,2.977-.847,4.616v.109c0,1.639.282,3.187.847,4.644.564,1.457,1.365,2.731,2.404,3.824,1.038,1.093,2.257,1.958,3.66,2.595,1.402.638,2.958.956,4.671.956,1.675,0,3.224-.309,4.644-.929,1.42-.619,2.631-1.475,3.633-2.568,1.001-1.093,1.784-2.358,2.349-3.797.564-1.438.847-2.977.847-4.617v-.109Z" fill="#323335" stroke-width="0"/>
            <path d="M380.452,428.157l-8.195-12.238h-6.61v12.238h-8.413v-38.242h17.482c4.552,0,8.094,1.111,10.626,3.332,2.531,2.222,3.797,5.318,3.797,9.287v.109c0,3.096-.756,5.619-2.267,7.567-1.512,1.948-3.488,3.378-5.928,4.288l9.341,13.658h-9.833ZM380.616,402.972c0-1.821-.583-3.187-1.748-4.097-1.166-.91-2.786-1.366-4.862-1.366h-8.359v10.981h8.522c2.076,0,3.669-.492,4.78-1.475,1.11-.983,1.666-2.294,1.666-3.933v-.109Z" fill="#323335" stroke-width="0"/>
            <path d="M410.608,397.509v8.25h18.247v7.594h-18.247v14.805h-8.413v-38.242h29.119v7.594h-20.705Z" fill="#323335" stroke-width="0"/>
          </g>
        </g>
      </g>
    </g>
  </g>
</svg>